<?xml version="1.0" standalone="no"?>
<!DOCTYPE svg PUBLIC "-//W3C//DTD SVG 20010904//EN"
 "http://www.w3.org/TR/2001/REC-SVG-20010904/DTD/svg10.dtd">
<svg version="1.0" xmlns="http://www.w3.org/2000/svg"
 width="450pt" height="648pt" viewBox="0 0 450 648"
 preserveAspectRatio="xMidYMid meet">
<metadata>
Created by potrace 1.8, written by Peter Selinger 2001-2007
</metadata>
<g transform="translate(0,648) scale(0.129600,-0.129600)"
fill="#000000" stroke="none">
<path d="M1315 4973 l-17 -28 23 22 c12 12 20 25 17 28 -3 3 -13 -7 -23 -22z"/>
<path d="M1780 4978 c68 -65 136 -100 250 -130 75 -19 86 -24 72 -35 -15 -11
-14 -11 8 -7 14 4 32 6 40 6 26 0 143 -23 154 -30 6 -3 22 -8 36 -9 62 -7 150
-26 150 -32 0 -7 -158 -89 -211 -109 -14 -6 -64 -20 -110 -31 -46 -12 -106
-29 -132 -38 -36 -12 -68 -14 -130 -9 -71 6 -181 9 -255 7 -31 -1 -62 -19 -62
-35 0 -8 -7 -16 -15 -20 -8 -3 -15 -12 -15 -19 0 -7 -11 -20 -25 -27 -21 -11
-27 -11 -43 3 -10 10 -22 17 -27 17 -5 0 -18 8 -29 18 -21 17 -21 17 -3 -4 9
-11 14 -24 10 -29 -5 -4 -2 -5 5 -1 21 12 39 -11 34 -44 -4 -25 -8 -29 -24
-24 -13 4 -18 2 -14 -4 3 -5 -18 -17 -47 -27 -93 -30 -156 -67 -208 -122 -53
-56 -89 -122 -88 -163 l1 -25 10 28 c5 15 13 27 18 27 5 0 16 8 26 17 16 16
16 16 10 -7 -7 -24 -6 -24 8 -6 9 10 13 22 11 27 -3 4 2 6 11 5 9 -1 21 -10
26 -19 5 -10 12 -16 16 -13 4 2 8 -9 9 -25 2 -20 -1 -27 -9 -23 -8 5 -9 2 -5
-9 4 -10 1 -17 -6 -17 -7 0 -4 -5 6 -11 9 -6 14 -15 11 -21 -5 -7 -1 -9 9 -5
24 9 21 -6 -3 -21 -11 -7 -20 -18 -20 -24 0 -7 -12 -22 -27 -33 -14 -12 -27
-32 -29 -46 -1 -13 -3 -27 -3 -30 -1 -3 -11 -4 -24 -2 -14 3 -29 -2 -37 -12
-11 -14 -11 -24 5 -67 22 -62 60 -107 69 -82 3 8 6 40 6 70 0 38 3 53 11 48 7
-4 9 -21 6 -40 -3 -19 -1 -36 4 -40 7 -4 6 -10 0 -18 -6 -7 -8 -16 -4 -19 3
-4 1 -12 -4 -19 -21 -25 -21 -91 -2 -124 18 -30 18 -31 -1 -49 -11 -10 -20
-25 -19 -34 0 -14 1 -14 6 -1 7 18 34 50 42 50 3 0 12 -9 19 -21 11 -17 11
-24 0 -37 -12 -15 -11 -16 5 -3 21 16 21 13 2 -32 -8 -20 -15 -44 -14 -54 0
-14 2 -14 5 -3 13 38 38 90 43 90 4 0 5 -17 3 -37 -2 -24 3 -45 12 -58 16 -19
16 -19 10 10 -7 32 -7 33 -5 53 1 10 4 10 16 -2 20 -20 47 -95 38 -109 -3 -6
-1 -7 6 -3 6 4 14 0 17 -9 11 -29 -3 -27 -35 5 -39 40 -40 29 -2 -19 22 -28
27 -41 20 -54 -6 -9 -15 -17 -22 -17 -7 0 -6 4 3 10 9 6 10 10 3 10 -14 0 -43
-28 -43 -41 0 -6 18 -28 40 -50 22 -22 38 -45 35 -50 -4 -5 -10 -7 -15 -4 -4
3 -13 -2 -20 -10 -7 -8 -27 -15 -45 -15 -58 0 -140 -20 -153 -37 -14 -19 -9
-22 52 -37 27 -7 28 -6 16 11 -13 17 -13 17 6 0 18 -17 18 -19 2 -28 -19 -11
-24 -29 -8 -29 5 0 18 9 29 21 13 14 26 19 40 14 12 -3 19 -11 16 -16 -4 -5 1
-9 10 -9 17 0 45 -23 46 -37 0 -4 3 -10 6 -13 4 -3 3 1 -1 8 -4 7 -1 12 7 12
16 0 30 -26 22 -39 -6 -10 43 -35 69 -36 13 0 20 -8 21 -22 2 -32 15 -42 15
-12 0 30 10 43 35 47 11 2 26 11 34 20 13 16 13 16 8 0 -3 -9 0 -19 9 -22 8
-3 13 -2 11 2 -3 4 1 13 9 20 8 7 14 8 14 3 0 -12 47 5 70 26 13 12 12 14 -8
19 -12 4 -22 11 -22 16 0 5 -5 6 -11 3 -5 -4 -22 -4 -35 -1 -21 6 -24 9 -13
22 17 21 11 22 -56 14 -44 -5 -71 -3 -102 9 -49 17 -59 34 -13 21 39 -11 120
-14 145 -5 11 4 32 11 47 17 15 6 34 8 42 5 10 -4 13 -1 10 8 -4 10 2 13 23
11 15 -1 34 -5 40 -9 9 -5 11 -3 7 6 -3 8 -1 18 5 22 7 4 11 -3 11 -16 0 -12
3 -20 6 -16 11 11 -6 57 -21 57 -35 0 -11 19 35 29 66 14 94 14 158 -3 29 -8
52 -10 52 -5 0 6 -9 28 -21 51 -23 44 -43 117 -53 188 -3 25 -9 59 -12 75 -4
17 -8 40 -8 53 -1 21 -2 21 -27 -8 -53 -60 -140 -21 -191 85 -20 43 -28 53
-28 36 0 -31 -9 -22 -15 15 -2 16 -8 45 -13 64 -8 31 -6 38 14 53 23 17 23 17
18 0 -4 -14 -3 -14 7 2 6 11 21 31 33 44 19 21 16 21 -36 -8 -63 -34 -69 -33
-140 12 -40 25 -46 33 -37 48 7 14 5 23 -11 39 -15 15 -18 25 -11 37 14 25
-18 81 -51 88 -33 8 -46 24 -27 36 9 5 23 2 37 -7 13 -9 31 -13 39 -10 10 4
13 2 10 -7 -4 -10 7 -13 42 -13 27 -1 58 -8 70 -16 13 -10 38 -14 64 -13 23 2
48 -2 55 -8 11 -8 18 -5 33 13 l20 25 -7 -28 c-4 -17 -1 -38 6 -52 10 -18 10
-31 1 -56 -16 -46 -14 -56 12 -64 19 -7 17 -9 -14 -12 -22 -2 -44 -13 -55 -26
-19 -22 -19 -22 2 -4 25 21 40 22 48 2 7 -19 30 -19 45 -1 9 11 9 20 2 35 -8
14 -8 21 2 24 9 4 9 6 0 6 -19 1 -16 51 2 51 25 0 40 45 27 75 -16 34 -15 40
3 25 21 -18 20 -86 -2 -99 -14 -8 -15 -12 -6 -22 17 -17 33 27 33 87 0 55 -12
79 -48 99 -26 15 -26 15 -3 13 35 -4 61 -46 70 -111 4 -31 5 -57 2 -57 -13 0
-4 -148 11 -195 9 -27 22 -74 29 -103 9 -38 17 -51 27 -47 11 4 13 -2 10 -23
-2 -16 2 -34 9 -41 7 -6 13 -23 13 -37 0 -52 89 -144 141 -146 13 -1 45 -16
71 -35 40 -27 61 -34 130 -42 46 -5 97 -8 113 -6 59 7 140 7 168 0 15 -4 27
-4 27 0 0 9 -27 35 -37 35 -5 0 -9 16 -10 36 -1 26 -10 45 -34 70 -18 19 -39
34 -47 34 -7 0 -10 5 -7 10 4 6 -3 18 -14 28 -12 9 -25 31 -30 48 -9 31 -8 32
17 25 21 -6 28 -15 33 -45 6 -37 37 -76 61 -76 8 1 5 7 -7 18 -11 9 -20 24
-19 32 0 9 -1 10 -3 2 -7 -21 -23 -2 -23 28 0 20 -12 40 -39 68 -40 40 -42 46
-25 114 7 32 -27 73 -56 65 -14 -3 -23 4 -34 28 -20 42 -20 49 1 41 15 -6 15
-5 -1 13 -11 12 -17 30 -14 43 2 14 -4 30 -14 41 -17 16 -18 16 -18 -4 0 -11
4 -18 9 -15 4 3 8 -8 7 -24 -1 -17 -2 -30 -3 -30 -2 0 -9 15 -17 34 -7 18 -27
42 -43 54 -30 21 -90 119 -79 129 3 4 6 1 6 -5 0 -7 9 -12 21 -12 11 0 29 -5
40 -10 36 -20 19 5 -19 27 -36 20 -71 67 -59 79 5 5 40 15 107 29 8 2 29 6 45
10 25 5 27 4 12 -5 -11 -7 -24 -13 -30 -15 -7 -1 -28 -9 -47 -17 -19 -8 -44
-18 -54 -22 -10 -3 -16 -9 -14 -12 3 -3 33 4 65 15 60 20 60 20 99 1 75 -39
181 -17 258 52 32 29 51 28 43 -3 -3 -11 -1 -19 4 -19 5 0 16 -14 25 -32 20
-39 51 -65 118 -99 46 -23 51 -28 48 -56 -2 -21 2 -32 13 -37 9 -3 13 -11 10
-17 -4 -6 -13 -8 -21 -5 -8 3 -14 1 -14 -5 0 -18 20 -49 32 -49 6 0 4 8 -5 18
-17 19 -14 23 44 49 4 1 26 -13 50 -32 24 -18 47 -32 51 -29 4 3 34 7 65 10
32 2 75 7 96 9 28 4 39 1 43 -10 4 -8 12 -15 18 -15 16 0 152 -127 145 -134
-3 -3 -19 -1 -35 4 -16 5 -58 17 -94 26 -87 24 -170 60 -170 75 0 7 -3 9 -7 6
-3 -4 -17 0 -29 8 -16 10 -22 11 -18 3 5 -13 24 -25 100 -62 22 -10 47 -22 56
-27 10 -5 25 -9 33 -9 9 0 35 -9 57 -20 23 -11 51 -20 62 -20 17 -1 18 -2 6
-9 -25 -15 -192 -32 -336 -36 -122 -3 -141 -1 -173 17 -57 32 -53 36 14 13 11
-3 7 2 -10 11 -16 10 -38 17 -48 15 -10 -1 -46 21 -80 50 -61 51 -61 51 -14 6
26 -26 47 -49 47 -53 0 -4 -30 -4 -66 -1 -36 2 -63 3 -61 0 10 -10 113 -20
128 -13 11 6 32 -2 70 -28 48 -33 60 -37 114 -36 33 1 67 5 76 9 10 3 20 2 24
-4 3 -6 3 -11 -2 -12 -4 0 -21 -3 -38 -6 -16 -3 -43 -5 -60 -5 -28 0 -28 0 -7
-8 12 -5 28 -7 36 -4 7 3 30 -6 51 -20 39 -27 61 -34 50 -16 -3 6 1 10 9 10
19 0 30 -17 14 -22 -7 -3 -5 -7 6 -11 10 -4 15 -3 11 3 -3 6 -1 10 4 10 6 0
11 -4 11 -9 0 -5 20 -20 44 -32 25 -12 64 -41 87 -65 l43 -44 -31 -10 c-19 -7
-30 -18 -29 -28 1 -19 -25 -21 -107 -9 -31 4 -46 3 -42 -3 3 -6 24 -10 45 -10
21 0 41 -4 44 -9 3 -5 14 -8 24 -6 9 1 11 0 5 -2 -7 -3 -13 -10 -13 -18 0 -7
-7 -18 -15 -25 -12 -10 -15 -10 -15 1 0 8 -6 3 -13 -11 -9 -17 -10 -28 -3 -33
7 -5 3 -6 -8 -3 -11 4 -26 0 -36 -9 -18 -17 -124 -39 -145 -31 -8 3 -15 1 -17
-5 -2 -5 -32 -16 -68 -23 -36 -8 -54 -15 -40 -15 19 -1 21 -4 12 -13 -26 -26
-10 -30 16 -5 27 26 74 40 207 61 l40 7 -40 -35 c-22 -20 -53 -45 -70 -57 -16
-12 -43 -38 -60 -58 -24 -29 -19 -27 26 14 31 28 79 69 107 93 31 26 50 48 46
55 -5 9 -4 9 4 2 9 -8 7 -25 -8 -67 -17 -50 -34 -128 -57 -273 l-8 -50 -49 -1
c-28 0 -52 -6 -54 -12 -2 -7 6 -12 17 -12 12 0 21 -4 21 -9 0 -6 16 -7 35 -4
26 4 35 2 35 -9 0 -11 -12 -13 -49 -11 -45 3 -49 2 -44 -17 4 -13 14 -20 32
-20 26 -1 26 -1 6 -18 -27 -23 -22 -68 8 -76 12 -3 34 -6 48 -6 23 0 28 -6 38
-42 7 -24 15 -49 17 -55 3 -7 -1 -13 -10 -13 -9 0 -13 6 -10 14 4 11 -1 11
-30 2 -20 -6 -36 -14 -36 -18 0 -7 55 -13 86 -9 6 0 20 -23 32 -52 55 -132
161 -213 315 -241 l37 -7 0 687 0 686 -69 -61 c-68 -61 -70 -61 -110 -52 -31
7 -41 6 -41 -4 0 -8 9 -11 24 -8 29 6 41 -10 21 -27 -12 -10 -21 -8 -50 14
-19 15 -35 33 -35 41 0 7 -13 16 -29 20 -16 3 -47 22 -69 41 -22 18 -45 34
-51 34 -5 0 -21 5 -35 12 l-26 11 28 15 c15 8 86 20 157 28 72 8 142 19 157
25 15 6 50 9 77 7 36 -2 51 1 51 10 0 6 -9 12 -21 12 -30 0 -57 16 -129 80
-36 31 -76 63 -90 70 -25 14 -24 14 34 32 l58 18 52 -41 c48 -39 49 -39 14 -5
-21 20 -38 40 -38 44 0 4 11 15 24 24 19 14 31 15 57 8 18 -5 35 -8 37 -5 2 2
-11 8 -29 14 l-34 9 35 2 35 2 -30 7 c-16 4 -53 6 -81 4 -38 -3 -56 0 -68 12
-9 9 -20 14 -25 11 -12 -8 -71 13 -71 25 0 5 -18 9 -39 9 -22 0 -43 4 -46 10
-11 17 143 9 157 -8 11 -13 8 -14 -22 -8 -32 5 -33 5 -8 -5 17 -7 37 -7 60 0
31 9 31 9 6 10 -38 1 -46 21 -8 21 20 0 29 4 24 11 -3 6 -17 9 -29 7 -19 -4
-24 0 -28 26 -6 39 -3 42 27 28 29 -13 58 -68 50 -94 -5 -16 -2 -18 19 -13 18
5 28 2 36 -12 7 -12 10 -13 11 -4 0 10 8 12 30 7 19 -3 29 -2 25 4 -3 6 -18
10 -33 10 -42 0 -72 11 -72 26 0 18 25 18 44 -1 8 -8 26 -15 40 -15 20 0 26 5
26 23 0 12 -9 30 -20 40 -11 9 -20 24 -20 34 0 13 3 14 12 5 21 -21 32 -13 12
10 -16 18 -17 21 -2 15 10 -4 2 14 -23 46 -21 29 -39 55 -39 60 0 4 -4 7 -10
7 -5 0 6 -22 25 -49 50 -70 43 -73 -20 -11 -57 57 -63 66 -42 68 6 0 39 10 72
21 57 20 39 22 -37 5 -32 -7 -36 7 -16 51 14 32 40 32 74 0 15 -14 29 -25 30
-25 2 0 4 22 4 49 0 43 -3 51 -22 57 -35 10 -65 38 -60 53 3 9 0 11 -7 6 -7
-4 -21 1 -32 11 -15 13 -16 19 -7 26 9 5 7 8 -8 8 -12 0 -31 9 -43 19 -13 11
-28 18 -34 16 -7 -2 -23 10 -37 28 -13 18 -18 27 -9 20 13 -10 15 -5 17 34 1
25 4 48 6 50 2 2 31 1 64 -3 l60 -6 -23 -74 c-13 -41 -19 -74 -15 -74 5 0 14
16 20 35 6 19 16 35 20 35 5 0 7 6 4 13 -3 8 0 26 5 40 12 31 45 36 60 10 9
-16 10 -16 11 -1 0 9 8 18 18 21 9 2 -8 5 -38 5 -30 1 -75 4 -100 8 -25 3 -53
6 -62 6 -20 -1 -22 6 -9 27 10 15 61 8 96 -13 11 -7 43 -13 71 -14 l51 -1 2
109 c1 115 -2 128 -49 183 -14 16 -24 33 -22 38 1 5 -17 9 -41 9 l-43 0 4 -37
c3 -38 -21 -113 -36 -113 -4 0 -14 6 -21 13 -11 10 -11 8 -1 -11 6 -13 10 -26
7 -28 -6 -6 -35 45 -67 116 -29 65 -29 65 -35 58 -6 -5 31 -93 71 -170 20 -40
21 -48 9 -48 -24 0 -72 27 -113 64 -20 18 -55 45 -77 59 -36 25 -40 25 -47 10
-5 -15 -7 -14 -7 5 -1 15 6 26 17 28 9 3 22 16 29 30 13 29 -2 33 -17 4 -10
-19 -33 -22 -58 -7 -7 5 -10 11 -8 15 2 4 -15 8 -37 9 l-42 3 49 -46 c27 -25
56 -57 63 -71 14 -26 9 -48 -9 -37 -6 4 -5 10 3 15 11 7 9 9 -7 9 -11 0 -28
-6 -38 -13 -16 -12 -17 -17 -6 -36 11 -21 10 -22 -9 -16 -33 10 -83 63 -92 98
-7 26 -8 22 -5 -21 l3 -54 -56 7 c-31 4 -67 8 -81 9 -18 1 -29 10 -41 34 -15
34 -14 92 2 92 5 0 5 8 2 17 -6 14 -9 12 -19 -12 -7 -17 -13 -25 -14 -19 0 5
-6 19 -14 30 -14 19 -14 19 -13 -1 1 -11 8 -26 15 -33 6 -7 12 -23 12 -34 0
-21 0 -21 -25 2 -13 12 -22 27 -18 33 3 6 1 7 -5 3 -6 -3 -19 5 -30 19 -11 14
-23 25 -27 25 -5 0 0 -9 9 -19 10 -11 15 -25 11 -30 -3 -6 2 -11 13 -11 10 0
29 -11 42 -25 12 -13 26 -22 31 -20 4 3 10 1 14 -5 3 -5 0 -10 -7 -10 -8 0 -6
-5 5 -11 21 -13 22 -25 1 -33 -12 -5 -15 -2 -10 10 6 15 4 15 -10 3 -9 -7 -27
-15 -40 -16 -19 -3 -24 1 -24 17 0 11 -4 20 -10 20 -14 0 -13 -23 2 -38 7 -7
20 -12 29 -12 20 0 33 -27 16 -34 -7 -2 -4 -5 6 -5 25 -1 16 -26 -9 -26 -12 0
-19 7 -19 20 0 12 -23 41 -55 70 -30 27 -44 37 -31 22 14 -15 22 -30 19 -33
-12 -12 -49 18 -68 56 -25 48 -34 54 -51 32 -13 -15 -12 -16 3 -3 16 12 19 10
32 -20 14 -32 13 -34 -7 -40 -21 -5 -21 -5 3 -13 14 -5 30 -9 35 -10 6 -1 9
-8 7 -16 -3 -12 -1 -12 8 -3 12 11 64 1 84 -18 21 -19 -27 -40 -74 -33 -25 3
-58 8 -74 10 -16 2 -52 10 -80 18 -28 8 -71 17 -95 21 -29 5 -39 10 -30 15 7
5 17 6 21 3 5 -2 14 0 21 5 26 20 80 32 93 21 11 -9 14 -8 14 1 0 9 4 9 18 -1
15 -12 16 -12 4 2 -7 9 -9 25 -5 35 6 19 6 19 -15 0 -16 -14 -30 -17 -59 -12
-21 3 -30 2 -21 -2 15 -6 14 -9 -10 -18 -92 -36 -96 -36 -207 -10 -114 28
-159 47 -226 98 -58 45 -80 56 -49 26z m1602 -85 c69 -111 66 -155 -8 -149
-48 4 -94 29 -94 51 0 20 59 135 70 135 5 0 19 -17 32 -37z m-324 -40 c15 -10
40 -30 56 -46 15 -15 46 -37 67 -48 55 -28 48 -32 -13 -8 -29 11 -60 18 -70
16 -9 -3 -22 1 -28 8 -6 8 -17 13 -23 11 -7 -1 -9 -1 -4 1 12 7 8 23 -10 41
-16 16 -16 16 -10 0 7 -19 -7 -25 -18 -8 -5 8 14 50 23 50 1 0 15 -8 30 -17z
m-188 -18 c10 -12 10 -15 -4 -15 -9 0 -16 7 -16 15 0 8 2 15 4 15 2 0 9 -7 16
-15z m103 2 c7 -6 19 -21 27 -31 14 -18 13 -19 -2 -14 -15 6 -28 -9 -28 -33 0
-11 22 -8 31 5 4 4 7 -4 7 -18 0 -14 -4 -26 -8 -26 -4 0 -4 -18 1 -41 13 -55
2 -109 -21 -109 -10 0 -37 25 -60 55 -23 30 -51 57 -62 61 -15 4 -17 8 -8 14
9 6 11 21 6 55 l-8 47 44 -4 c24 -3 50 -8 58 -12 11 -4 16 -1 16 13 0 11 -3
18 -7 15 -9 -5 -20 22 -12 30 9 9 13 8 26 -7z m-309 -16 c3 -4 -3 -16 -13 -25
-18 -17 -20 -17 -30 2 -9 17 -8 21 7 25 28 8 31 7 36 -2z m159 -7 c13 -4 17
-16 17 -55 0 -27 -1 -49 -3 -49 -2 0 -27 11 -55 25 -29 14 -56 25 -62 25 -14
0 -32 39 -26 57 5 12 17 14 59 8 28 -3 60 -9 70 -11z m-144 -43 c-15 -5 -22 6
-14 19 6 9 10 9 16 -1 5 -8 4 -15 -2 -18z m397 -13 c4 4 4 2 1 -4 -4 -6 2 -19
13 -29 12 -11 16 -21 11 -25 -6 -3 0 -12 12 -19 20 -13 21 -13 9 1 -13 17 -13
17 86 10 12 -1 22 -9 22 -17 0 -13 -4 -14 -34 -1 -19 8 -37 12 -40 9 -10 -10
33 -35 46 -27 7 4 8 3 4 -4 -4 -7 -3 -12 2 -12 5 0 7 -11 4 -25 -5 -30 -40
-54 -52 -35 -9 15 -64 -11 -73 -34 -5 -12 1 -13 28 -9 38 6 85 -3 85 -16 0 -5
-8 -8 -17 -7 -29 2 -29 -42 -1 -53 23 -10 23 -10 -4 -10 -16 -1 -28 -5 -28
-10 0 -6 -8 -10 -17 -9 -10 0 -31 -2 -48 -6 -74 -13 -70 -17 -73 50 l-3 61 27
-5 c16 -3 29 1 35 9 12 19 11 32 -1 24 -6 -3 -19 -4 -30 0 -16 5 -19 16 -19
81 0 54 3 74 12 71 7 -3 11 -10 9 -16 -1 -7 2 -9 9 -6 7 5 4 15 -10 29 -29 31
-28 48 3 36 13 -5 27 -6 32 -2z m114 -30 c54 -15 63 -32 13 -24 -23 3 -49 9
-59 13 -13 5 -15 3 -9 -7 5 -9 4 -11 -4 -6 -6 4 -9 11 -6 16 3 5 -4 11 -15 15
-11 3 -20 10 -20 15 0 5 15 4 33 -1 17 -6 48 -15 67 -21z m260 22 c0 -5 -5
-10 -11 -10 -5 0 -7 5 -4 10 3 6 8 10 11 10 2 0 4 -4 4 -10z m-880 -19 c0 -5
-20 -27 -45 -50 -25 -23 -45 -45 -45 -49 0 -5 -11 -19 -24 -31 -20 -19 -28
-21 -44 -12 -29 15 -40 14 -18 -2 18 -13 17 -15 -10 -34 -46 -32 -82 -41 -203
-48 -40 -2 -76 -7 -80 -11 -6 -6 166 2 199 10 8 2 30 7 48 11 19 4 36 14 39
22 3 8 12 12 19 9 8 -3 13 -2 11 2 -1 4 2 9 7 12 5 3 46 43 91 88 79 82 82 84
132 87 l52 3 24 -73 c13 -41 21 -74 18 -73 -20 2 -31 -3 -26 -12 4 -6 11 -8
16 -5 5 4 9 -8 9 -24 l0 -31 -89 0 c-79 0 -164 -10 -214 -26 -16 -5 -17 -3 -8
14 6 12 11 27 11 34 0 7 -8 -3 -18 -22 -11 -23 -27 -37 -47 -42 -16 -4 -48
-12 -70 -18 -22 -5 -49 -16 -60 -24 -20 -15 30 -3 177 39 79 23 208 37 268 28
46 -7 55 -12 62 -33 7 -24 8 -24 4 3 -2 15 -3 27 -2 27 22 -2 135 -45 167 -64
l44 -26 -74 0 c-41 0 -72 -2 -69 -5 3 -3 38 -6 78 -6 39 0 70 -2 68 -3 -15
-14 -158 -66 -180 -66 -26 0 -28 3 -28 43 0 23 -5 49 -10 57 -6 10 -7 3 -3
-24 5 -32 4 -38 -8 -31 -11 6 -12 5 -1 -6 24 -26 12 -36 -48 -43 -33 -4 -60
-11 -60 -15 0 -5 17 -5 38 0 20 5 57 8 82 8 l45 0 -80 -40 c-43 -21 -85 -39
-92 -39 -8 0 -18 10 -24 23 -9 21 -9 20 -4 -4 4 -25 0 -28 -53 -49 -31 -12
-73 -28 -92 -36 -31 -12 -169 -50 -254 -69 -27 -6 -28 -5 -24 29 2 19 1 33 -3
30 -4 -2 -9 2 -12 8 -3 7 -3 -7 -1 -32 l4 -45 -15 33 c-8 17 -21 32 -28 31 -9
0 -9 -2 1 -6 6 -2 12 -9 12 -14 0 -5 -11 -3 -25 3 -16 7 -21 14 -14 18 7 5 5
9 -5 13 -9 4 -16 11 -16 17 0 6 6 8 13 5 6 -3 2 2 -10 11 -17 12 -23 27 -23
53 0 20 -7 47 -16 59 -16 24 -12 42 12 42 8 0 14 5 14 10 0 7 -16 9 -39 6 -30
-4 -41 -1 -47 12 -4 9 -6 20 -6 24 1 4 -9 15 -22 23 -13 9 -29 28 -35 43 -7
15 -24 35 -39 45 l-27 17 33 -5 c17 -3 46 -7 62 -10 17 -2 30 0 30 6 0 5 6 9
13 7 14 -3 84 14 172 42 33 11 80 24 105 30 41 10 84 30 198 90 23 12 45 26
48 31 7 12 64 12 64 0z m225 -27 c47 -28 61 -40 95 -78 14 -16 19 -26 11 -21
-11 6 -13 4 -8 -8 5 -14 2 -14 -36 -1 -23 8 -52 12 -64 9 -13 -3 -23 -1 -23 5
0 6 -4 9 -9 6 -7 -5 -20 24 -20 44 0 3 -7 22 -16 43 l-16 39 23 -7 c13 -4 41
-18 63 -31z m78 -135 c45 -12 83 -22 85 -24 12 -10 40 -111 33 -118 -4 -4 -28
5 -52 21 -24 15 -64 34 -89 41 -25 7 -56 16 -70 19 -32 9 -42 67 -13 75 10 3
19 5 21 6 1 0 40 -9 85 -20z m-1239 -30 c-4 -8 1 -9 17 -4 21 6 20 4 -6 -14
-34 -24 -59 -29 -29 -6 12 9 14 14 6 15 -15 0 -6 20 9 20 6 0 7 -5 3 -11z
m1366 -21 c0 -19 -2 -20 -10 -8 -13 19 -13 30 0 30 6 0 10 -10 10 -22z m-1503
-100 c-3 -8 -6 -5 -6 6 -1 11 2 17 5 13 3 -3 4 -12 1 -19z m1789 0 c-3 -7 -11
-32 -18 -55 -7 -24 -15 -43 -18 -43 -3 0 -17 18 -32 39 -30 42 -26 55 22 64
45 8 52 7 46 -5z m-99 -4 c-3 -3 -12 -4 -19 -1 -8 3 -5 6 6 6 11 1 17 -2 13
-5z m201 -70 c1 -1 -23 -11 -55 -22 -31 -12 -59 -19 -62 -16 -2 2 3 29 13 60
l18 56 41 -38 c23 -22 43 -39 45 -40z m-289 49 c0 -10 -3 -13 -5 -6 -4 8 -14
8 -40 -3 -19 -8 -34 -10 -34 -4 0 5 15 14 33 19 46 13 47 13 46 -6z m109 -39
c35 -47 36 -74 5 -74 -10 0 -27 -7 -37 -15 -16 -12 -22 -12 -28 -2 -5 8 -8 7
-8 -5 0 -14 -6 -16 -32 -12 -18 4 -37 12 -43 19 -5 6 -16 10 -22 8 -7 -3 -13
3 -13 12 0 9 -4 14 -9 10 -5 -3 -12 -1 -16 5 -3 5 -2 10 2 10 5 0 13 10 18 22
7 14 31 29 75 44 36 12 67 23 70 23 3 0 20 -20 38 -45z m-218 21 c0 -6 -26
-16 -70 -30 -35 -10 -16 7 23 22 37 13 47 15 47 8z m-103 -41 c-3 -3 -12 -4
-19 -1 -8 3 -5 6 6 6 11 1 17 -2 13 -5z m50 -19 c-11 -7 -26 -11 -35 -8 -13 6
-13 8 4 14 10 4 26 8 34 8 12 0 11 -3 -3 -14z m410 -17 c-2 -7 -11 -12 -20
-12 -14 2 -13 -2 4 -25 20 -24 20 -26 3 -30 -16 -3 -54 31 -54 48 0 7 44 28
63 30 5 1 7 -5 4 -11z m-425 -15 c21 -9 38 -23 38 -31 0 -8 6 -12 15 -8 20 7
19 -11 -1 -22 -19 -10 -54 -4 -54 9 0 4 8 12 18 18 14 8 13 10 -8 7 -14 -1
-33 -6 -44 -11 -10 -4 -21 -4 -25 1 -3 5 -15 11 -26 12 -30 6 -32 12 -11 28
26 18 51 18 98 -3z m-1218 -25 c11 -10 16 -23 12 -34 -5 -14 -4 -15 8 -5 11 9
15 8 20 -5 4 -9 4 -19 1 -22 -3 -3 -5 0 -5 8 0 9 -3 10 -14 1 -17 -14 -29 9
-19 37 6 15 5 16 -13 2 -10 -8 -16 -10 -12 -6 10 11 -11 38 -23 30 -5 -3 -9 0
-9 6 0 15 31 8 54 -12z m1041 -24 c-27 -25 -62 -52 -77 -59 -25 -14 -27 -13
-36 15 l-11 29 82 30 c45 16 84 30 87 30 3 0 -17 -20 -45 -45z m536 19 c7 -16
15 -31 16 -34 5 -8 -77 -32 -85 -25 -3 3 2 14 10 23 9 10 19 28 22 41 10 29
20 28 37 -5z m-51 11 c0 -3 -8 -19 -17 -34 -17 -30 -52 -37 -54 -10 0 10 -2
11 -6 2 -2 -6 -10 -9 -15 -6 -6 4 9 17 33 30 46 24 59 28 59 18z m-395 -20
c21 -8 46 -13 57 -11 10 3 16 2 13 -3 -5 -8 31 -24 78 -34 15 -4 25 -11 22
-16 -10 -16 -55 -12 -61 5 -4 8 -11 15 -17 15 -6 0 0 -11 12 -24 l23 -24 -32
-17 c-17 -9 -29 -19 -26 -22 3 -3 -1 -18 -10 -34 -19 -37 -35 -79 -29 -79 2 0
15 25 29 56 14 31 30 54 34 52 5 -1 35 -31 66 -65 57 -62 57 -62 24 -52 -41
11 -41 11 -33 -1 3 -5 17 -10 31 -10 13 0 24 -4 24 -8 0 -17 -49 -54 -61 -46
-9 5 -11 1 -7 -14 l6 -21 -52 20 c-28 11 -55 25 -61 31 -7 7 -6 9 1 5 7 -4 9
3 6 20 -5 27 -5 27 -14 4 -7 -21 -35 -25 -31 -4 1 6 -8 8 -20 6 -26 -5 -99 48
-126 93 -33 54 -32 91 2 85 4 0 6 3 5 9 -2 7 99 100 108 100 1 0 19 -7 39 -16z
m195 -37 c8 -3 3 -5 -12 -4 -28 1 -34 8 -21 20 4 4 9 3 12 -1 3 -5 13 -12 21
-15z m-406 -24 c13 -26 12 -29 -13 -51 -82 -72 -182 -98 -253 -68 -21 9 -38
20 -38 25 0 4 30 20 68 35 37 15 75 32 85 37 13 7 23 6 33 -2 12 -10 13 -9 9
3 -4 11 5 20 32 31 52 22 60 21 77 -10z m748 -34 c45 -49 55 -65 48 -79 -5
-10 -7 -19 -5 -22 3 -3 -1 -5 -9 -5 -8 0 -12 6 -9 14 3 8 2 13 -3 12 -5 -1
-26 5 -46 14 -21 10 -41 17 -46 17 -4 0 -8 9 -9 21 -1 12 -10 27 -20 35 -17
13 -17 15 6 34 13 11 26 20 30 20 3 0 32 -28 63 -61z m-326 9 c-1 -13 -5 -26
-10 -29 -5 -4 0 -18 10 -33 21 -28 37 -35 28 -11 -4 11 -2 13 9 9 8 -3 18 -1
22 5 3 6 0 9 -8 5 -8 -3 -18 0 -22 5 -3 6 -12 8 -18 4 -7 -4 -7 0 1 10 8 9 11
25 7 38 -6 19 -4 21 11 14 11 -4 24 -8 31 -8 6 0 24 -10 38 -22 l27 -21 -42
-53 c-23 -29 -40 -55 -37 -57 2 -2 23 20 47 50 l44 55 29 -17 c30 -17 47 -48
47 -83 0 -12 -5 -19 -12 -16 -7 2 -12 13 -11 23 1 17 0 17 -10 3 -9 -12 -36
-18 -97 -22 l-85 -6 -57 61 c-62 65 -62 73 -1 92 20 6 21 4 18 -29 -2 -19 1
-32 6 -29 5 3 9 23 9 45 0 26 4 39 13 39 8 0 13 -10 13 -22z m-1275 -11 c-10
-9 -11 -8 -5 6 3 10 9 15 12 12 3 -3 0 -11 -7 -18z m37 -32 c-6 -14 -15 -25
-20 -25 -5 0 -1 11 8 25 9 14 18 25 20 25 2 0 -2 -11 -8 -25z m25 -5 c-3 -11
-9 -20 -15 -20 -5 0 -4 9 2 20 6 11 12 20 14 20 2 0 2 -9 -1 -20z m287 5 c7
-8 10 -15 7 -15 -2 0 -10 7 -17 15 -7 8 -10 15 -7 15 2 0 10 -7 17 -15z m1238
-100 c-3 -3 -9 2 -12 12 -6 14 -5 15 5 6 7 -7 10 -15 7 -18z m-169 -78 c56
-16 75 -26 82 -44 5 -13 11 -23 15 -23 3 0 4 7 0 15 -3 8 -1 15 4 15 9 0 12
-5 14 -31 2 -16 -98 -47 -123 -37 -12 4 -21 3 -21 -2 0 -6 -19 -10 -42 -11
-24 0 -62 0 -85 -1 -24 0 -40 -4 -37 -9 9 -16 -3 -10 -17 8 -12 15 -12 16 1 8
8 -4 2 6 -14 23 -16 18 -26 35 -23 39 4 3 7 2 7 -3 0 -5 18 -9 40 -9 27 -1 35
2 25 8 -22 12 -19 27 11 58 31 32 43 32 163 -4z m-989 -39 c0 -4 -7 -5 -15 -2
-8 4 -15 18 -15 33 l1 26 14 -25 c8 -14 14 -28 15 -32z m696 10 c37 -16 44
-51 8 -38 -16 7 -24 6 -24 -1 0 -8 -5 -7 -15 1 -16 13 -21 50 -6 50 5 0 22 -6
37 -12z m464 -19 c0 -5 -9 -9 -19 -9 -11 0 -22 4 -25 9 -3 5 6 9 19 9 14 0 25
-4 25 -9z m-1145 -39 c3 -5 2 -10 -4 -10 -5 0 -13 5 -16 10 -3 6 -2 10 4 10 5
0 13 -4 16 -10z m-822 -27 c-5 -12 -2 -15 11 -10 15 6 15 5 -1 -18 -19 -26
-53 -34 -53 -12 0 7 5 18 12 25 7 7 8 12 4 12 -5 0 -3 7 4 15 15 18 31 10 23
-12z m879 10 c10 -9 18 -20 18 -25 0 -11 -38 14 -44 29 -7 18 4 16 26 -4z
m688 7 c0 -5 -2 -10 -4 -10 -3 0 -8 5 -11 10 -3 6 -1 10 4 10 6 0 11 -4 11
-10z m-677 -90 c-3 -12 -8 -19 -11 -16 -5 6 5 36 12 36 2 0 2 -9 -1 -20z m36
-37 c1 -7 -3 -13 -8 -13 -11 0 -19 31 -13 50 4 11 7 10 13 -5 4 -11 8 -26 8
-32z m100 -67 c12 -15 5 -46 -11 -46 -5 0 -7 4 -4 9 8 13 -4 42 -14 36 -5 -3
-11 -1 -15 5 -9 15 31 12 44 -4z m986 4 c3 -5 1 -10 -4 -10 -6 0 -11 5 -11 10
0 6 2 10 4 10 3 0 8 -4 11 -10z m-1027 -33 c6 -6 13 -26 16 -42 3 -17 3 -23 0
-15 -4 8 -13 23 -22 33 -8 9 -11 17 -6 17 5 0 2 5 -6 10 -8 5 -10 10 -4 10 6
0 16 -6 22 -13z m-424 -53 c3 -8 2 -12 -4 -9 -6 3 -10 10 -10 16 0 14 7 11 14
-7z m-601 -7 c-5 -13 -16 -12 -21 2 -3 8 1 12 9 9 8 -3 13 -8 12 -11z m-31
-29 c-9 -9 -12 -7 -12 12 0 19 3 21 12 12 9 -9 9 -15 0 -24z m342 16 c3 -8 2
-12 -4 -9 -6 3 -10 10 -10 16 0 14 7 11 14 -7z m1356 -9 c16 -9 19 -14 9 -15
-8 0 -24 7 -35 15 -24 18 -7 19 26 0z m-616 -11 c3 -8 2 -12 -4 -9 -6 3 -10
10 -10 16 0 14 7 11 14 -7z m-1013 -17 c-6 -8 -9 -16 -6 -19 3 -2 -7 -15 -22
-29 -15 -13 -22 -17 -15 -8 7 9 11 22 10 27 -2 6 6 18 17 26 25 19 31 20 16 3z
m582 -7 c3 -11 1 -23 -4 -26 -5 -3 -9 6 -9 20 0 31 6 34 13 6z m32 -20 c5 -17
4 -22 -3 -15 -5 6 -13 21 -17 35 -5 17 -4 22 3 15 5 -5 13 -21 17 -35z m400
-1 c11 -17 -1 -21 -15 -4 -8 9 -8 15 -2 15 6 0 14 -5 17 -11z m-327 -108 c45
-51 77 -75 133 -103 54 -27 67 -37 49 -37 -36 -1 -191 95 -262 162 -19 18 -16
43 5 30 7 -4 6 1 -2 10 -12 15 -12 17 2 11 8 -3 42 -36 75 -73z m-618 35 c0
-8 -9 -18 -20 -21 -11 -4 -18 -11 -15 -16 4 -5 2 -9 -3 -9 -12 0 -24 -42 -14
-50 10 -7 9 -60 0 -60 -5 0 -8 11 -8 25 0 15 -6 38 -14 53 -7 15 -17 38 -21
52 -7 24 -7 24 9 5 10 -13 14 -14 11 -4 -4 10 3 20 17 27 33 15 58 14 58 -2z
m1042 -71 c8 -17 14 -22 19 -14 8 14 39 -41 38 -68 0 -17 -1 -17 -7 -1 -4 10
-11 19 -17 20 -5 2 -9 9 -7 16 2 7 -2 11 -9 10 -6 -2 -21 12 -31 30 -12 18
-15 32 -9 32 6 0 17 -11 23 -25z m-452 5 c8 -5 12 -11 9 -14 -3 -3 -14 1 -25
9 -21 16 -8 20 16 5z m-577 -64 c3 -7 1 -19 -5 -27 -8 -11 -9 -10 -4 4 4 12 2
16 -5 11 -12 -7 -31 15 -23 28 6 10 31 -1 37 -16z m-82 -59 c-10 -9 -11 -8 -5
6 3 10 9 15 12 12 3 -3 0 -11 -7 -18z m66 -5 c8 -5 5 -20 -10 -54 -12 -26 -25
-48 -29 -48 -13 0 -47 38 -50 57 -2 12 8 24 32 35 40 20 41 20 57 10z m-97
-16 c0 -2 -7 -9 -15 -16 -12 -10 -15 -10 -15 4 0 9 7 16 15 16 8 0 15 -2 15
-4z m100 -57 c-7 -11 -14 -18 -17 -15 -3 3 0 12 7 21 18 21 23 19 10 -6z m270
-73 c0 -3 -4 -8 -10 -11 -5 -3 -10 -1 -10 4 0 6 5 11 10 11 6 0 10 -2 10 -4z
m-231 -184 c0 -24 -1 -25 -9 -7 -12 28 -12 47 0 40 6 -3 10 -18 9 -33z m1541
-217 c0 -8 -9 -15 -20 -15 -13 0 -18 5 -14 15 4 8 12 15 20 15 8 0 14 -7 14
-15z"/>
<path d="M2020 4511 c19 -5 44 -12 55 -16 15 -6 17 -5 9 4 -6 7 -31 14 -55 16
-42 4 -42 4 -9 -4z"/>
<path d="M2125 4400 c-60 -22 -47 -26 20 -5 27 8 52 12 57 9 4 -3 8 0 8 5 0
15 -27 12 -85 -9z"/>
<path d="M1980 4395 c7 -9 15 -13 17 -11 7 7 -7 26 -19 26 -6 0 -6 -6 2 -15z"/>
<path d="M2567 4381 c-3 -12 -1 -21 3 -21 14 0 19 15 11 29 -6 9 -10 7 -14 -8z"/>
<path d="M2285 4340 c3 -5 16 -10 28 -9 21 0 21 1 2 9 -28 12 -37 12 -30 0z"/>
<path d="M2573 4323 c4 -6 1 -14 -5 -16 -7 -3 0 -6 16 -6 16 -1 27 0 25 2 -2
1 -13 9 -23 17 -11 8 -17 10 -13 3z"/>
<path d="M2771 4657 c28 -21 59 -36 59 -29 0 5 -11 14 -25 20 -24 11 -44 16
-34 9z"/>
<path d="M2860 4615 c14 -17 20 -19 20 -6 0 5 -7 12 -16 15 -14 5 -15 4 -4 -9z"/>
<path d="M3115 4320 c3 -5 8 -10 11 -10 2 0 4 5 4 10 0 6 -5 10 -11 10 -5 0
-7 -4 -4 -10z"/>
<path d="M3177 4299 c7 -7 15 -10 18 -7 3 3 -2 9 -12 12 -14 6 -15 5 -6 -5z"/>
<path d="M2765 4194 c-11 -8 -19 -20 -17 -25 1 -6 -1 -8 -6 -5 -9 5 -52 -29
-52 -41 0 -3 8 1 18 10 10 10 32 18 48 18 16 1 43 5 59 9 28 8 27 8 -10 7 -43
-2 -48 10 -12 30 14 8 17 12 7 12 -8 0 -24 -7 -35 -15z"/>
<path d="M2867 4196 c3 -4 -1 -13 -8 -18 -11 -8 -11 -9 3 -5 9 3 24 -3 34 -14
9 -10 20 -17 22 -14 3 3 -3 12 -14 20 -10 8 -14 15 -8 15 7 0 14 6 17 14 4 9
-3 13 -23 12 -15 -1 -26 -5 -23 -10z"/>
<path d="M2810 4036 c0 -2 7 -6 15 -10 8 -3 15 -1 15 4 0 6 -7 10 -15 10 -8 0
-15 -2 -15 -4z"/>
<path d="M2897 4009 c7 -7 15 -10 18 -7 3 3 -2 9 -12 12 -14 6 -15 5 -6 -5z"/>
<path d="M2936 4002 c-9 -15 11 -34 30 -29 17 4 17 6 -3 12 -13 4 -20 11 -17
16 3 5 3 9 0 9 -3 0 -7 -4 -10 -8z"/>
<path d="M2966 3948 c3 -5 10 -6 15 -3 13 9 11 12 -6 12 -8 0 -12 -4 -9 -9z"/>
<path d="M3125 4120 c-3 -6 1 -7 9 -4 18 7 21 14 7 14 -6 0 -13 -4 -16 -10z"/>
<path d="M3095 3855 c17 -8 37 -14 45 -14 8 0 2 7 -15 14 -16 8 -37 14 -45 14
-8 0 -1 -7 15 -14z"/>
<path d="M2376 4975 c9 -14 18 -25 20 -25 7 0 -1 25 -13 37 -20 22 -24 14 -7
-12z"/>
<path d="M2448 4969 l-33 -31 38 27 c20 15 37 29 37 31 0 10 -12 2 -42 -27z"/>
<path d="M2705 4990 c-13 -6 -15 -9 -5 -9 8 0 22 4 30 9 18 12 2 12 -25 0z"/>
<path d="M2787 4993 c-3 -5 -2 -15 4 -23 5 -8 9 -27 9 -42 0 -16 5 -28 10 -28
7 0 9 13 5 33 -6 29 -3 35 19 45 29 13 29 13 28 -53 l-1 -40 10 35 11 35 19
-35 c10 -19 18 -31 19 -26 0 5 9 1 20 -9 11 -10 20 -15 20 -10 0 4 -10 16 -22
26 -12 11 -22 29 -23 42 -2 12 -8 21 -15 19 -6 -1 -14 7 -17 18 -6 23 -24 26
-53 8 -17 -11 -22 -10 -29 1 -5 7 -11 9 -14 4z"/>
<path d="M2745 4950 c-13 -6 -15 -9 -5 -9 8 0 22 4 30 9 18 12 2 12 -25 0z"/>
<path d="M2493 4943 c9 -2 23 -2 30 0 6 3 -1 5 -18 5 -16 0 -22 -2 -12 -5z"/>
<path d="M970 4910 c-9 -6 -10 -10 -3 -10 6 0 15 5 18 10 8 12 4 12 -15 0z"/>
<path d="M2557 4913 c-10 -9 -9 -23 2 -23 5 0 11 7 15 15 5 15 -5 20 -17 8z"/>
<path d="M1890 4865 c7 -8 15 -15 17 -15 3 0 0 7 -7 15 -7 8 -15 15 -17 15 -3
0 0 -7 7 -15z"/>
<path d="M2905 4870 c-3 -5 1 -10 9 -10 9 0 16 5 16 10 0 6 -4 10 -9 10 -6 0
-13 -4 -16 -10z"/>
<path d="M1944 4803 c17 -18 27 -34 23 -34 -4 -1 -11 -2 -16 -3 -5 0 -13 -4
-17 -8 -4 -5 -16 -8 -26 -8 -10 0 -18 -4 -18 -9 0 -11 33 -2 105 27 28 12 43
21 35 21 -8 1 -22 -4 -30 -9 -11 -7 -24 -1 -50 23 l-35 32 29 -32z"/>
<path d="M1187 4809 c7 -7 15 -10 18 -7 3 3 -2 9 -12 12 -14 6 -15 5 -6 -5z"/>
<path d="M1300 4755 c14 -8 30 -14 35 -14 6 0 -1 6 -15 14 -14 8 -29 14 -35
14 -5 0 1 -6 15 -14z"/>
<path d="M1350 4736 c0 -2 7 -7 16 -10 8 -3 12 -2 9 4 -6 10 -25 14 -25 6z"/>
<path d="M1838 4723 c7 -3 16 -2 19 1 4 3 -2 6 -13 5 -11 0 -14 -3 -6 -6z"/>
<path d="M1404 4706 c11 -9 25 -16 32 -16 7 0 21 -3 31 -6 10 -3 7 1 -7 9 -14
8 -36 18 -50 21 -24 7 -24 6 -6 -8z"/>
<path d="M1605 4670 c-3 -6 1 -7 9 -4 18 7 21 14 7 14 -6 0 -13 -4 -16 -10z"/>
<path d="M1525 4658 c24 -15 119 -48 123 -44 5 6 -82 40 -95 37 -6 -1 -14 3
-18 9 -3 5 -12 10 -18 10 -7 0 -3 -6 8 -12z"/>
<path d="M3240 4626 c0 -5 69 -46 78 -46 4 0 -10 11 -30 25 -36 24 -48 30 -48
21z"/>
<path d="M1666 4596 c2 -6 14 -11 27 -11 12 -1 33 -4 47 -8 22 -7 23 -7 6 4
-29 18 -85 29 -80 15z"/>
<path d="M3422 4567 c-2 -23 -5 -26 -20 -18 -14 7 -18 6 -18 -9 0 -14 4 -16
12 -9 8 7 14 6 19 -1 10 -16 -4 -48 -23 -53 -15 -4 -14 -5 2 -6 14 -1 17 -7
14 -26 -3 -14 -1 -25 3 -25 5 0 9 10 10 23 2 51 7 69 20 78 9 5 10 9 2 9 -6 0
-14 15 -16 33 -3 29 -4 30 -5 4z"/>
<path d="M1324 4572 c8 -13 66 -56 66 -49 0 3 -17 17 -37 33 -20 15 -33 23
-29 16z"/>
<path d="M1445 4420 c-3 -6 1 -7 9 -4 18 7 21 14 7 14 -6 0 -13 -4 -16 -10z"/>
<path d="M310 4123 c0 -12 81 -83 95 -83 5 0 -5 10 -22 23 -18 13 -41 34 -52
48 -11 13 -20 19 -21 12z"/>
<path d="M424 4021 c4 -6 16 -16 28 -22 15 -8 18 -8 14 0 -4 6 -16 16 -28 22
-15 8 -18 8 -14 0z"/>
<path d="M1091 3974 c0 -11 3 -14 6 -6 3 7 2 16 -1 19 -3 4 -6 -2 -5 -13z"/>
<path d="M471 3947 l-25 -32 25 23 c32 28 36 28 83 -12 38 -33 39 -34 18 -45
-12 -7 -22 -16 -22 -22 0 -6 7 -3 16 5 16 17 69 22 78 8 5 -8 68 -22 186 -40
25 -4 77 -4 115 1 39 5 92 9 118 9 33 0 45 4 39 10 -7 7 -41 6 -107 -2 -175
-25 -350 11 -443 89 -26 23 -50 41 -53 40 -2 0 -15 -14 -28 -32z"/>
<path d="M2461 3898 c2 -2 18 -14 34 -28 l30 -25 -24 28 c-14 15 -29 27 -34
27 -6 0 -8 -1 -6 -2z"/>
<path d="M2270 3880 c0 -5 5 -10 11 -10 5 0 7 5 4 10 -3 6 -8 10 -11 10 -2 0
-4 -4 -4 -10z"/>
<path d="M2530 3841 c0 -6 9 -15 20 -21 11 -6 20 -19 20 -30 0 -10 4 -22 10
-25 6 -4 7 1 3 12 -6 16 -5 16 10 4 9 -7 17 -10 17 -5 0 13 -80 77 -80 65z"/>
<path d="M3420 3835 c0 -1 11 -10 25 -19 19 -13 23 -13 19 -2 -4 12 -44 31
-44 21z"/>
<path d="M2800 3820 c-9 -6 -10 -10 -3 -10 6 0 15 5 18 10 8 12 4 12 -15 0z"/>
<path d="M542 3800 c0 -14 2 -19 5 -12 2 6 2 18 0 25 -3 6 -5 1 -5 -13z"/>
<path d="M3445 3750 c10 -11 20 -20 23 -20 3 0 -3 9 -13 20 -10 11 -20 20 -23
20 -3 0 3 -9 13 -20z"/>
<path d="M2475 3728 c11 -6 31 -20 45 -32 20 -16 19 -14 -4 12 -17 17 -37 32
-45 32 -12 -1 -11 -3 4 -12z"/>
<path d="M1840 3717 c0 -5 7 -22 16 -38 8 -17 14 -35 12 -41 -2 -5 -12 6 -23
26 -11 19 -25 38 -33 41 -8 3 0 -18 17 -49 19 -32 31 -68 31 -89 0 -34 -1 -35
-40 -34 -22 1 -40 5 -40 8 0 3 -16 13 -35 22 -24 12 -35 13 -35 5 0 -21 -18 5
-28 42 -6 22 -11 27 -11 14 -2 -35 50 -125 83 -145 41 -25 88 -24 111 1 38 42
34 161 -8 220 -9 13 -17 21 -17 17z"/>
<path d="M1671 3694 c0 -11 3 -14 6 -6 3 7 2 16 -1 19 -3 4 -6 -2 -5 -13z"/>
<path d="M2650 3696 c0 -2 7 -7 16 -10 8 -3 12 -2 9 4 -6 10 -25 14 -25 6z"/>
<path d="M2560 3670 c8 -5 20 -10 25 -10 6 0 3 5 -5 10 -8 5 -19 10 -25 10 -5
0 -3 -5 5 -10z"/>
<path d="M3105 3660 c3 -5 8 -10 11 -10 2 0 4 5 4 10 0 6 -5 10 -11 10 -5 0
-7 -4 -4 -10z"/>
<path d="M1835 3580 c-3 -5 -1 -10 4 -10 6 0 11 5 11 10 0 6 -2 10 -4 10 -3 0
-8 -4 -11 -10z"/>
<path d="M2720 3559 c0 -5 5 -7 10 -4 6 3 10 8 10 11 0 2 -4 4 -10 4 -5 0 -10
-5 -10 -11z"/>
<path d="M2763 3563 c9 -2 23 -2 30 0 6 3 -1 5 -18 5 -16 0 -22 -2 -12 -5z"/>
<path d="M2810 3553 c0 -10 57 -9 67 0 3 4 -10 7 -30 7 -20 0 -37 -3 -37 -7z"/>
<path d="M2719 3473 c-13 -16 -12 -17 4 -4 16 13 21 21 13 21 -2 0 -10 -8 -17
-17z"/>
<path d="M2710 3430 c-14 -10 -23 -21 -20 -23 3 -2 16 6 30 19 30 29 25 31
-10 4z"/>
<path d="M2813 3425 c0 -8 3 -13 6 -10 2 3 21 -9 40 -27 33 -31 33 -30 -4 10
-21 23 -40 42 -40 42 -1 0 -2 -7 -2 -15z"/>
<path d="M2583 3349 c9 -5 17 -18 18 -27 0 -11 2 -12 6 -4 6 15 -14 42 -31 42
-6 0 -3 -5 7 -11z"/>
<path d="M2985 3320 c11 -5 29 -9 40 -9 20 0 20 0 0 9 -11 5 -29 9 -40 9 -20
0 -20 0 0 -9z"/>
<path d="M2620 3283 c0 -6 7 -16 15 -23 8 -7 12 -17 8 -23 -3 -6 -1 -7 6 -3 7
5 17 -5 26 -26 8 -18 14 -27 15 -20 0 7 -5 23 -11 35 -15 28 -59 73 -59 60z"/>
<path d="M3056 3240 c-33 -22 -66 -40 -73 -40 -7 0 -13 -4 -13 -10 0 -5 7 -10
15 -10 8 0 15 5 15 10 0 6 7 10 16 10 9 0 12 -5 8 -12 -8 -15 26 14 68 55 28
28 45 36 32 16 -4 -7 -2 -10 5 -8 6 2 12 9 13 14 4 22 -30 12 -86 -25z"/>
<path d="M2702 3235 c-1 -11 5 -31 13 -45 9 -16 14 -19 15 -9 0 8 -4 19 -9 25
-5 5 -11 18 -14 29 -5 20 -5 20 -5 0z"/>
<path d="M890 3186 c0 -3 9 -10 20 -16 11 -6 20 -8 20 -6 0 3 -9 10 -20 16
-11 6 -20 8 -20 6z"/>
<path d="M2659 3175 c-3 -2 -23 -7 -45 -11 -21 -3 -47 -10 -56 -15 -26 -14
-55 -11 -62 6 -4 13 -10 14 -26 5 -11 -6 -20 -8 -20 -4 0 4 -11 -3 -25 -16
-14 -13 -25 -29 -25 -36 0 -7 -12 -22 -26 -33 -15 -12 -22 -21 -17 -21 5 0 15
-11 21 -25 12 -25 12 -25 43 -9 17 9 42 14 55 11 13 -2 24 -1 24 3 0 4 12 7
28 8 15 0 45 10 67 21 29 14 42 16 47 8 4 -7 8 -10 9 -7 0 3 2 13 4 23 2 10
10 26 18 35 11 14 11 22 2 39 -6 13 -14 21 -16 18z"/>
<path d="M251 3154 c0 -11 3 -14 6 -6 3 7 2 16 -1 19 -3 4 -6 -2 -5 -13z"/>
<path d="M501 3144 c0 -11 3 -14 6 -6 3 7 2 16 -1 19 -3 4 -6 -2 -5 -13z"/>
<path d="M956 3143 c38 -32 66 -50 145 -91 48 -25 32 -11 -30 27 -22 14 -38
27 -36 31 2 3 -1 12 -7 20 -8 12 -9 12 -4 -2 6 -19 -9 -25 -19 -8 -3 6 -21 17
-38 26 -31 15 -31 15 -11 -3z"/>
<path d="M57 3076 c-4 -11 -1 -30 8 -48 11 -23 11 -29 1 -25 -9 4 -11 -2 -7
-21 3 -19 6 -22 9 -9 2 9 8 15 13 11 5 -3 7 -10 4 -15 -4 -5 -1 -9 4 -9 6 0
11 5 11 11 0 6 8 8 18 5 13 -5 18 0 20 19 1 19 -3 25 -18 25 -15 0 -20 7 -20
25 0 14 -5 25 -11 25 -7 0 -9 -10 -4 -27 4 -19 3 -25 -4 -18 -5 6 -11 24 -13
40 -2 25 -4 27 -11 11z"/>
<path d="M5 3040 c3 -5 8 -10 11 -10 2 0 4 5 4 10 0 6 -5 10 -11 10 -5 0 -7
-4 -4 -10z"/>
<path d="M1885 3020 c-3 -5 -1 -10 4 -10 6 0 11 5 11 10 0 6 -2 10 -4 10 -3 0
-8 -4 -11 -10z"/>
<path d="M2361 3014 c0 -11 3 -14 6 -6 3 7 2 16 -1 19 -3 4 -6 -2 -5 -13z"/>
<path d="M1740 2990 c0 -13 18 -22 24 -11 3 5 -1 11 -9 15 -8 3 -15 1 -15 -4z"/>
<path d="M1846 2914 c-11 -8 -16 -14 -10 -14 13 0 39 18 34 24 -3 2 -14 -2
-24 -10z"/>
<path d="M476 2912 c-3 -5 1 -9 9 -9 8 0 12 4 9 9 -3 4 -7 8 -9 8 -2 0 -6 -4
-9 -8z"/>
<path d="M445 2900 c3 -5 8 -10 11 -10 2 0 4 5 4 10 0 6 -5 10 -11 10 -5 0 -7
-4 -4 -10z"/>
<path d="M351 2873 c0 -11 3 -13 6 -5 2 6 10 9 15 6 7 -4 8 -2 4 4 -11 18 -26
14 -25 -5z"/>
<path d="M397 2859 c-13 -8 -15 -14 -7 -30 12 -22 6 -39 -16 -39 -8 0 -14 -8
-14 -17 0 -14 4 -12 25 7 14 13 25 29 25 36 0 6 10 14 22 17 18 5 19 8 8 21
-15 19 -19 19 -43 5z"/>
<path d="M2635 2818 c-4 -20 -16 -44 -26 -54 -12 -11 -17 -25 -13 -38 3 -14 2
-17 -4 -8 -7 11 -11 11 -19 0 -10 -12 -5 -72 13 -170 5 -31 3 -38 -17 -48
l-24 -13 20 23 c11 13 16 21 10 18 -11 -6 -31 11 -31 26 1 5 -5 11 -13 14 -10
3 -12 0 -8 -11 3 -9 2 -19 -3 -22 -6 -4 -10 1 -10 10 0 9 -4 13 -10 10 -5 -3
-10 -2 -10 3 0 5 -9 12 -21 15 -15 4 -19 2 -15 -9 7 -19 -9 -18 -29 3 -13 13
-19 13 -25 3 -6 -10 -9 -10 -13 1 -4 10 -6 8 -6 -4 -1 -10 -5 -15 -11 -12 -5
3 -17 -3 -27 -15 -10 -11 -28 -20 -40 -20 -21 0 -48 -31 -37 -43 9 -9 -22 -48
-32 -39 -4 4 -2 -1 5 -10 7 -10 10 -18 5 -18 -5 0 18 -13 51 -28 93 -43 124
-65 137 -94 7 -15 17 -24 23 -20 5 3 4 -1 -3 -10 -9 -12 -10 -18 -2 -23 6 -4
9 -14 6 -24 -6 -15 -5 -15 7 1 11 14 13 10 14 -28 1 -24 -2 -42 -5 -40 -4 2
-7 -8 -6 -22 1 -33 -5 -52 -18 -52 -5 0 -6 5 -2 12 4 7 3 8 -4 4 -7 -4 -12
-15 -12 -25 0 -26 -25 -72 -35 -63 -5 4 -5 1 -1 -6 9 -16 -23 -44 -42 -37 -7
3 -10 1 -7 -4 3 -5 1 -12 -5 -16 -5 -3 -10 -1 -10 6 0 8 -4 8 -15 -1 -9 -8
-13 -21 -9 -36 4 -15 2 -24 -5 -24 -6 0 -10 3 -10 8 5 32 -3 35 -26 9 -35 -36
-38 -34 -19 13 9 23 14 44 10 47 -3 4 -6 -1 -6 -11 0 -10 -5 -14 -11 -10 -6 4
-9 19 -5 36 3 16 2 27 -3 24 -16 -10 -19 -57 -5 -63 8 -3 11 -9 8 -15 -4 -5
-10 -5 -17 1 -8 6 -18 1 -31 -17 -18 -24 -18 -25 -2 -19 16 6 18 3 13 -21 -4
-21 -2 -29 8 -29 8 0 12 4 9 9 -6 9 -5 9 42 11 27 2 30 0 20 -16 -8 -13 -8
-20 3 -26 7 -5 11 -13 7 -19 -3 -5 -1 -25 6 -43 9 -25 9 -34 0 -37 -15 -5 -15
-33 0 -69 6 -15 10 -34 9 -40 -1 -7 3 -13 9 -13 6 0 8 -5 4 -11 -4 -8 0 -9 15
-4 12 4 21 2 21 -4 0 -6 -7 -11 -15 -11 -8 0 -15 -9 -15 -20 0 -11 5 -20 11
-20 8 0 8 -4 0 -13 -6 -8 -9 -23 -6 -35 2 -12 0 -22 -5 -22 -5 0 -7 -6 -4 -14
7 -19 -42 -122 -62 -130 -23 -9 -26 -7 -18 7 6 9 5 9 -7 0 -9 -7 -20 -8 -29
-3 -8 5 -18 6 -22 4 -4 -3 -19 7 -33 22 -19 20 -25 23 -25 10 0 -9 -5 -16 -11
-16 -5 0 -8 4 -5 9 4 5 -4 7 -16 4 -13 -3 -20 -2 -16 2 4 4 0 14 -10 21 -13 9
-20 10 -31 1 -11 -10 -13 -8 -7 9 9 28 -2 54 -20 47 -17 -6 -19 13 -1 21 6 3
2 3 -10 1 -12 -3 -24 -2 -27 3 -3 6 4 12 16 15 12 4 20 8 17 11 -8 8 -79 14
-74 6 7 -11 -16 -18 -48 -15 -15 2 -27 -2 -27 -8 0 -8 -4 -7 -9 2 -5 7 -13 11
-19 7 -10 -6 -65 18 -58 25 2 2 -10 5 -27 6 -17 1 -33 6 -36 11 -8 11 -49 13
-56 1 -4 -5 -1 -9 4 -9 6 0 11 -5 11 -11 0 -8 -5 -8 -15 1 -8 7 -12 16 -9 21
3 5 -4 9 -15 9 -12 0 -21 -5 -21 -10 0 -5 -3 -9 -7 -8 -8 2 -90 -32 -125 -52
-13 -7 -18 -7 -18 2 0 9 -3 10 -8 2 -17 -25 -52 -35 -90 -24 -20 5 -59 10 -85
10 -45 0 -49 -2 -63 -35 -18 -45 -18 -48 7 -34 13 6 38 8 62 5 46 -8 137 -45
137 -56 0 -4 11 -11 25 -14 16 -4 22 -11 19 -21 -4 -11 -2 -13 9 -10 16 7 31
-20 20 -37 -3 -6 -1 -8 4 -5 6 4 13 0 17 -8 3 -8 12 -15 19 -15 8 0 33 -18 56
-39 23 -22 40 -32 36 -23 -5 13 -1 12 17 -3 40 -34 53 -50 56 -67 1 -9 9 -30
17 -45 22 -42 19 -63 -5 -34 -24 28 -24 29 -4 -34 9 -27 22 -86 29 -130 7 -44
27 -118 43 -165 34 -96 49 -177 88 -467 26 -195 28 -203 50 -203 24 0 29 11
39 100 8 70 12 198 5 198 -22 -2 -25 9 -22 75 3 67 5 74 37 102 72 65 98 85
106 85 5 0 9 5 9 11 0 5 -6 7 -12 4 -7 -4 -2 2 11 13 14 11 31 18 38 15 8 -3
13 2 13 13 0 11 3 15 8 9 12 -18 52 -16 52 3 0 15 2 15 11 2 8 -12 12 -12 16
-2 4 10 8 10 21 0 13 -11 14 -11 8 1 -5 8 -3 17 5 22 8 4 14 12 14 16 2 25 29
85 44 95 10 7 30 36 44 63 66 129 67 134 59 173 -9 41 -1 90 13 82 6 -3 9 -12
8 -20 -2 -10 0 -10 3 -2 3 6 13 12 22 12 26 0 53 84 40 122 -8 22 -15 28 -29
25 -16 -4 -18 0 -13 37 3 22 -1 83 -10 134 -25 145 -21 250 19 456 18 100 37
207 40 239 4 31 10 55 15 52 4 -3 6 -13 3 -24 -3 -11 2 -21 11 -24 9 -4 16 -2
16 4 0 6 5 7 11 4 6 -4 8 -13 5 -21 -4 -9 7 -22 27 -34 37 -23 51 -25 44 -7
-2 6 -9 11 -15 10 -7 -2 -9 9 -7 27 2 17 -2 36 -8 43 -16 15 -16 36 0 45 8 5
6 13 -7 29 -9 12 -20 19 -24 16 -3 -4 -6 -2 -6 4 0 14 34 43 51 43 8 0 20 5
26 11 19 19 90 -151 119 -286 41 -192 151 -417 196 -400 20 8 15 50 -9 73 -7
7 -16 24 -19 36 -3 12 -18 49 -33 81 -24 50 -26 61 -15 73 18 18 18 28 0 13
-12 -10 -17 -3 -32 42 -15 48 -15 58 -3 86 8 17 18 31 22 31 5 0 5 -5 2 -10
-4 -7 2 -9 18 -4 14 3 33 1 43 -4 13 -7 24 -2 51 26 19 19 30 38 25 41 -13 9
-23 41 -12 41 6 0 5 9 -2 20 -7 11 -15 15 -19 9 -4 -7 -9 -4 -13 6 -5 14 -9
15 -21 5 -12 -10 -15 -9 -15 4 0 9 -5 16 -11 16 -6 0 -8 -7 -5 -16 6 -16 -15
-44 -34 -44 -6 0 -22 -7 -35 -16 -23 -15 -24 -15 -34 23 -5 21 -13 72 -16 113
-9 97 -23 172 -35 184 -6 6 -10 18 -10 28 0 10 -4 18 -9 18 -5 0 -19 17 -31
38 -20 32 -23 54 -25 150 -2 93 0 112 11 108 8 -3 26 6 41 20 16 14 22 22 14
19 -10 -6 -12 -2 -6 16 4 17 3 20 -3 10 -7 -10 -14 -11 -28 -2 -11 6 -15 11
-11 11 5 0 1 7 -8 16 -12 12 -19 13 -29 5 -11 -9 -15 -9 -19 1 -2 7 -8 -4 -12
-24z m-50 -463 c0 -40 -3 -46 -27 -54 -16 -6 -28 -8 -28 -5 0 3 53 103 55 104
0 0 0 -20 0 -45z m32 20 c-4 -8 -1 -17 5 -21 10 -6 -7 -23 -24 -24 -12 0 -9
30 5 45 16 18 21 19 14 0z m33 -85 c0 -12 -33 -30 -54 -30 -19 0 -21 26 -3 33
21 9 57 7 57 -3z m-123 -112 c-3 -7 -5 -2 -5 12 0 14 2 19 5 13 2 -7 2 -19 0
-25z m-97 -198 c0 -5 -5 -10 -11 -10 -5 0 -7 5 -4 10 3 6 8 10 11 10 2 0 4 -4
4 -10z m-110 -226 c0 -8 -5 -12 -10 -9 -6 4 -8 11 -5 16 9 14 15 11 15 -7z
m52 -131 c-3 -16 -7 -22 -10 -15 -4 13 4 42 11 42 2 0 2 -12 -1 -27z m45 -140
c-3 -10 -5 -4 -5 12 0 17 2 24 5 18 2 -7 2 -21 0 -30z m13 -58 c0 -14 -2 -25
-4 -25 -2 0 -6 11 -8 25 -3 14 -1 25 3 25 5 0 9 -11 9 -25z m-1100 -35 c0 -5
-5 -10 -11 -10 -5 0 -7 5 -4 10 3 6 8 10 11 10 2 0 4 -4 4 -10z m730 -41 c0
-6 -4 -7 -10 -4 -5 3 -10 11 -10 16 0 6 5 7 10 4 6 -3 10 -11 10 -16z m-51
-265 c13 -12 -13 -15 -41 -4 -51 20 -55 29 -7 19 24 -6 45 -12 48 -15z m31
-14 c0 -5 -5 -10 -11 -10 -5 0 -7 5 -4 10 3 6 8 10 11 10 2 0 4 -4 4 -10z
m-42 -110 c-13 -21 -28 -27 -28 -10 0 5 8 14 18 19 23 14 24 14 10 -9z"/>
<path d="M700 2806 c-19 -8 -40 -10 -45 -6 -6 5 -18 2 -28 -5 -17 -12 -15 -14
18 -25 54 -18 37 -22 -20 -5 -62 19 -62 19 -68 -7 -9 -31 1 -36 12 -7 7 16 10
19 10 7 1 -9 -8 -23 -20 -31 -15 -11 -17 -16 -7 -20 10 -4 9 -8 -5 -18 -15
-13 -11 -14 40 -17 32 -2 74 -7 94 -12 19 -6 72 -9 118 -8 69 1 85 -1 93 -15
5 -9 17 -17 26 -17 14 0 21 14 30 60 7 34 15 67 18 74 6 17 -38 27 -173 43
-24 3 -43 9 -43 14 0 11 -7 11 -50 -5z"/>
<path d="M525 2781 c3 -5 -4 -16 -16 -24 -11 -9 -16 -18 -10 -21 5 -4 12 -2
16 4 4 6 11 8 16 5 5 -4 9 -2 9 4 0 5 3 16 6 25 4 11 1 16 -11 16 -9 0 -14 -4
-10 -9z"/>
<path d="M1311 2746 c-12 -18 -21 -47 -21 -63 0 -32 -14 -114 -25 -148 -6 -17
-5 -17 5 -5 9 12 10 10 4 -10 -3 -14 -11 -32 -16 -40 -6 -11 -7 -9 -3 8 4 12
4 22 1 22 -13 0 -60 -170 -60 -222 -1 -48 2 -56 17 -55 10 1 20 12 24 27 3 14
11 32 17 40 7 8 20 40 30 71 15 46 22 56 37 52 10 -3 25 -15 33 -28 8 -12 21
-28 28 -36 17 -18 52 -72 51 -79 -1 -3 3 -7 7 -10 9 -5 25 -46 62 -155 35
-101 29 -205 -11 -205 -6 0 -11 -5 -11 -11 0 -5 4 -8 9 -5 5 4 9 -14 8 -39 -1
-29 -7 -45 -15 -45 -7 0 -16 -10 -21 -22 -5 -13 -11 -22 -15 -20 -15 6 -20 1
-6 -8 13 -8 12 -10 -4 -10 -14 0 -17 -6 -14 -25 3 -13 1 -26 -5 -28 -5 -1 2
-11 16 -20 19 -12 28 -14 33 -5 5 7 3 8 -6 3 -9 -5 -11 -4 -6 4 6 9 11 9 22 0
11 -9 14 -7 14 11 0 13 3 21 6 17 3 -3 18 5 32 19 15 13 35 24 46 24 16 0 17
2 5 17 -11 13 -11 17 -1 20 6 3 12 11 12 19 0 7 11 21 26 30 17 11 22 20 15
27 -7 7 -6 17 1 31 10 19 9 20 -5 8 -14 -12 -16 -6 -14 67 1 50 -2 80 -8 78
-5 -2 -12 -14 -13 -26 -2 -15 0 -21 7 -17 13 9 14 -4 2 -23 -7 -10 -11 -6 -15
16 -8 34 -5 55 8 65 5 3 3 17 -7 31 -17 27 -30 84 -30 137 0 39 21 88 32 74 7
-11 161 -11 209 0 19 3 63 20 98 36 35 16 64 27 64 24 0 -2 9 4 20 13 11 10
20 22 20 28 0 5 -5 3 -10 -5 -8 -11 -9 -8 -5 11 5 21 1 31 -19 46 -14 11 -22
23 -18 27 3 4 -1 4 -9 1 -9 -3 -22 1 -29 10 -7 8 -19 15 -26 15 -8 0 -14 6
-14 13 0 8 -3 8 -9 -2 -8 -12 -12 -11 -27 3 -14 15 -15 19 -3 27 19 12 2 12
-20 0 -14 -8 -21 -3 -36 22 -11 18 -18 36 -17 40 1 5 -2 6 -8 2 -5 -3 -13 -24
-16 -45 -4 -22 -10 -38 -13 -37 -4 1 -22 -12 -39 -30 -45 -44 -67 -49 -106
-23 -32 22 -36 35 -40 116 -1 13 -6 20 -13 17 -14 -5 -16 5 -13 49 2 31 -15
43 -52 39 -20 -2 -28 2 -28 14 0 9 -4 13 -10 10 -5 -3 -10 -1 -10 5 0 7 -8 9
-19 5 -13 -4 -25 2 -39 20 l-20 25 -21 -34z m192 -353 c-6 -14 -8 -14 -14 3
-12 30 -10 37 5 24 8 -6 12 -19 9 -27z m48 -396 c-10 -9 -11 -8 -5 6 3 10 9
15 12 12 3 -3 0 -11 -7 -18z"/>
<path d="M385 2740 c-3 -5 -1 -10 4 -10 6 0 11 5 11 10 0 6 -2 10 -4 10 -3 0
-8 -4 -11 -10z"/>
<path d="M2084 2618 c3 -9 8 -33 12 -52 3 -20 9 -38 13 -40 8 -5 9 47 1 54 -3
3 -11 16 -18 30 -7 14 -10 17 -8 8z"/>
<path d="M748 2507 c-60 -59 -65 -69 -20 -45 22 13 44 34 50 50 13 36 10 35
-30 -5z"/>
<path d="M2126 2497 c3 -10 9 -15 12 -12 3 3 0 11 -7 18 -10 9 -11 8 -5 -6z"/>
<path d="M340 2440 c0 -5 5 -10 11 -10 5 0 7 5 4 10 -3 6 -8 10 -11 10 -2 0
-4 -4 -4 -10z"/>
<path d="M2010 2401 c0 -6 4 -13 10 -16 6 -3 7 1 4 9 -7 18 -14 21 -14 7z"/>
<path d="M320 2326 c0 -3 9 -10 20 -16 11 -6 20 -8 20 -6 0 3 -9 10 -20 16
-11 6 -20 8 -20 6z"/>
<path d="M380 2285 c7 -8 15 -15 17 -15 3 0 0 7 -7 15 -7 8 -15 15 -17 15 -3
0 0 -7 7 -15z"/>
<path d="M345 2220 c10 -11 20 -20 23 -20 3 0 -3 9 -13 20 -10 11 -20 20 -23
20 -3 0 3 -9 13 -20z"/>
<path d="M2036 2203 c-6 -14 -5 -15 5 -6 7 7 10 15 7 18 -3 3 -9 -2 -12 -12z"/>
<path d="M2011 2144 c0 -11 3 -14 6 -6 3 7 2 16 -1 19 -3 4 -6 -2 -5 -13z"/>
<path d="M817 2131 c-23 -15 -25 -20 -13 -30 11 -9 17 -8 30 4 9 9 14 20 11
25 -3 5 1 11 7 13 7 3 9 5 3 5 -5 1 -23 -7 -38 -17z"/>
<path d="M2605 2140 c3 -5 11 -10 16 -10 6 0 7 5 4 10 -3 6 -11 10 -16 10 -6
0 -7 -4 -4 -10z"/>
<path d="M1156 2125 c3 -6 0 -24 -6 -40 -6 -15 -9 -30 -6 -32 2 -2 10 16 19
40 12 34 12 44 2 44 -7 0 -11 -6 -9 -12z"/>
<path d="M1600 2089 c0 -5 5 -7 10 -4 6 3 10 8 10 11 0 2 -4 4 -10 4 -5 0 -10
-5 -10 -11z"/>
<path d="M786 2081 c-5 -8 -3 -16 4 -21 9 -5 9 -9 1 -14 -6 -4 -9 -12 -5 -17
3 -6 12 2 20 16 16 32 17 38 5 31 -5 -4 -11 -1 -13 6 -3 9 -6 9 -12 -1z"/>
<path d="M1435 2079 c-4 -6 -5 -12 -2 -15 2 -3 7 2 10 11 7 17 1 20 -8 4z"/>
<path d="M1981 2074 c0 -11 3 -14 6 -6 3 7 2 16 -1 19 -3 4 -6 -2 -5 -13z"/>
<path d="M3335 2048 c-164 -55 -176 -60 -171 -65 2 -3 19 0 38 6 18 5 86 27
151 47 64 21 117 41 117 46 0 11 1 11 -135 -34z"/>
<path d="M203 2019 c28 -31 55 -57 59 -58 14 -2 -5 64 -25 86 -11 12 -22 22
-26 21 -3 0 -8 1 -11 2 -3 1 -15 3 -27 4 -19 2 -15 -6 30 -55z"/>
<path d="M2018 2058 c8 -8 9 -15 1 -25 -15 -18 -32 -17 -25 2 3 8 1 15 -5 15
-5 0 -12 -7 -15 -15 -4 -10 -16 -13 -40 -10 -19 2 -34 0 -34 -6 0 -6 4 -7 10
-4 6 3 7 -1 4 -9 -7 -19 -20 -21 -30 -5 -9 15 -69 -46 -91 -91 -9 -19 -18 -38
-20 -42 -9 -18 80 1 102 22 14 13 28 20 31 17 4 -4 13 1 21 11 13 15 14 15 10
1 -4 -13 1 -16 19 -15 13 0 24 5 24 9 0 5 6 5 13 0 31 -20 57 -5 57 35 0 12 4
22 10 22 5 0 7 -8 3 -17 -3 -10 -3 -15 1 -12 4 4 8 15 10 26 4 17 0 20 -22 17
-24 -2 -25 -1 -9 10 9 7 17 20 17 28 0 8 5 19 11 25 7 7 3 9 -15 6 -15 -3 -26
-1 -26 6 0 6 -5 11 -12 11 -9 0 -9 -3 0 -12z m22 -38 c0 -5 -2 -10 -4 -10 -3
0 -8 5 -11 10 -3 6 -1 10 4 10 6 0 11 -4 11 -10z m0 -90 c0 -5 -4 -10 -10 -10
-5 0 -10 5 -10 10 0 6 5 10 10 10 6 0 10 -4 10 -10z"/>
<path d="M273 2021 c12 -22 23 -38 25 -37 5 6 -31 76 -39 76 -4 0 2 -18 14
-39z"/>
<path d="M340 2035 c0 -5 5 -17 10 -25 5 -8 10 -10 10 -5 0 6 -5 17 -10 25 -5
8 -10 11 -10 5z"/>
<path d="M2580 2014 c0 -16 9 -18 28 -5 10 6 9 10 -7 14 -14 3 -21 0 -21 -9z"/>
<path d="M80 1991 c0 -6 4 -13 10 -16 6 -3 7 1 4 9 -7 18 -14 21 -14 7z"/>
<path d="M211 1974 c13 -17 26 -30 28 -27 3 2 -8 16 -24 31 l-28 27 24 -31z"/>
<path d="M2255 1990 c-3 -6 1 -7 9 -4 18 7 21 14 7 14 -6 0 -13 -4 -16 -10z"/>
<path d="M2365 1979 c-4 -6 -5 -12 -2 -15 2 -3 7 2 10 11 7 17 1 20 -8 4z"/>
<path d="M2620 1955 c28 -29 27 -29 27 -10 0 8 -6 15 -14 15 -7 0 -13 5 -13
10 0 6 -5 10 -12 10 -6 0 -1 -11 12 -25z"/>
<path d="M288 1950 c-7 -24 -3 -38 8 -28 3 4 4 17 2 30 l-3 23 -7 -25z"/>
<path d="M1106 1955 c-9 -26 -7 -32 5 -12 6 10 9 21 6 23 -2 3 -7 -2 -11 -11z"/>
<path d="M3430 1950 c-19 -11 -31 -19 -27 -20 11 0 67 29 67 35 0 7 -1 7 -40
-15z"/>
<path d="M1620 1939 c0 -5 5 -7 10 -4 6 3 10 8 10 11 0 2 -4 4 -10 4 -5 0 -10
-5 -10 -11z"/>
<path d="M1 1861 c1 -68 2 -71 26 -71 13 0 22 4 19 9 -4 5 5 4 19 -2 30 -14
33 -31 4 -22 -14 5 -20 3 -19 -7 3 -20 -11 -58 -22 -58 -5 0 -6 5 -3 10 3 6 0
16 -8 24 -12 12 -14 8 -16 -31 -1 -33 4 -49 16 -59 17 -13 17 -14 1 -8 -14 5
-18 0 -18 -22 0 -15 8 -36 17 -46 14 -15 14 -19 3 -16 -13 3 -15 -24 -18 -174
-2 -139 0 -178 10 -178 9 0 9 -3 -2 -10 -12 -7 -12 -16 -4 -50 6 -22 7 -43 3
-46 -13 -8 -11 -54 2 -54 7 0 9 10 5 28 -4 18 -3 22 3 12 5 -8 11 -28 13 -45
3 -16 3 -24 1 -17 -3 6 -11 12 -19 12 -12 0 -14 -74 -13 -520 l1 -520 139 0
c139 0 139 0 135 23 -3 12 -7 47 -10 77 l-5 55 15 -40 c13 -39 14 -39 11 -7
-2 17 -2 32 0 32 2 0 56 -22 121 -49 165 -70 246 -90 353 -90 68 0 89 3 89 14
0 7 3 21 7 31 4 11 3 15 -4 11 -7 -5 -9 0 -6 12 3 10 0 22 -6 25 -13 9 -15 36
-2 36 5 0 12 -8 14 -18 3 -9 5 6 4 35 0 35 -4 50 -11 46 -8 -5 -8 -3 0 8 6 8
10 42 8 77 -1 47 2 62 12 62 17 0 19 27 2 32 -8 3 -8 9 0 24 8 15 7 23 -5 36
-14 16 -14 18 0 23 9 4 13 14 9 28 -5 18 -3 19 9 7 9 -8 15 -34 16 -68 0 -30
5 -58 10 -63 4 -4 6 24 3 64 l-5 72 27 1 c16 1 25 -3 21 -9 -3 -6 -1 -7 6 -3
6 4 9 12 6 17 -3 5 1 6 9 3 10 -4 16 -1 16 9 0 17 -24 17 -42 -1 -32 -32 -43
-10 -40 78 l1 35 -10 -30 c-5 -16 -7 -42 -4 -58 4 -25 3 -27 -15 -17 -12 6
-17 16 -14 22 10 16 12 78 2 84 -4 3 -8 10 -8 15 0 6 4 8 9 5 5 -4 8 5 6 19
-1 14 2 28 6 31 5 3 9 -2 9 -10 0 -9 5 -16 10 -16 6 0 10 6 9 13 -1 6 -1 37 0
68 1 50 4 57 27 67 15 7 22 17 18 24 -5 8 -2 9 12 4 10 -4 15 -4 11 0 -4 4 0
18 8 31 15 22 14 23 -10 21 -14 -1 -25 -8 -25 -15 0 -7 -8 -13 -19 -13 -18 0
-29 -40 -32 -124 -1 -17 -3 -23 -6 -14 -3 10 -11 15 -21 12 -15 -5 -15 -4 1 6
16 10 26 36 9 26 -4 -2 -8 8 -7 24 0 15 3 26 7 23 15 -8 8 36 -8 51 -8 9 -11
16 -5 16 6 0 11 7 11 16 0 9 -5 12 -12 8 -8 -5 -9 -2 -3 12 10 25 14 94 4 89
-4 -3 -10 2 -13 11 -4 9 -2 13 5 8 8 -5 10 9 6 47 -3 29 -2 58 2 64 5 5 3 31
-4 57 -7 30 -8 52 -2 60 6 9 7 8 3 -4 -3 -10 -1 -18 4 -18 15 0 12 23 -5 46
-14 21 -11 34 7 34 5 0 7 -4 4 -9 -3 -5 1 -11 9 -15 8 -3 17 0 21 6 4 7 3 8
-4 4 -12 -7 -16 5 -13 32 3 20 -20 14 -119 -29 -91 -39 -94 -40 -112 -21 -18
18 -18 19 1 44 19 24 45 78 37 78 -2 0 -21 -26 -42 -59 -40 -60 -60 -72 -136
-85 -36 -6 -58 -31 -35 -39 7 -3 -7 -3 -30 -2 -41 2 -55 -6 -33 -20 6 -3 10
-11 10 -16 0 -6 -5 -7 -12 -3 -8 5 -9 2 -5 -9 4 -12 1 -17 -10 -17 -15 0 -15
-2 0 -18 21 -23 22 -33 2 -26 -22 9 -18 -5 7 -25 19 -16 19 -18 4 -24 -9 -4
-14 -3 -11 2 3 5 2 12 -3 15 -18 11 -8 -25 12 -42 27 -25 84 -44 91 -31 4 5
24 9 46 9 21 0 39 5 39 11 0 5 -4 7 -10 4 -5 -3 -10 -1 -10 4 0 6 -11 11 -25
11 -25 0 -65 34 -65 57 0 19 24 16 45 -7 18 -20 70 -50 87 -50 16 0 7 33 -17
62 -28 33 -23 51 18 64 12 3 46 17 75 30 63 29 72 29 73 7 1 -10 2 -25 3 -33
2 -21 -27 -49 -36 -36 -5 7 -8 7 -8 -1 0 -7 -7 -13 -15 -13 -8 0 -15 -8 -15
-17 0 -16 2 -16 10 -3 9 13 12 13 21 -3 14 -23 29 -12 29 21 0 21 2 24 10 12
5 -8 10 -98 10 -201 l0 -186 -28 -14 c-15 -8 -30 -18 -34 -24 -4 -5 -8 -7 -8
-3 0 8 -65 -32 -90 -55 -8 -8 -27 -22 -42 -32 -15 -9 -25 -21 -22 -26 3 -5 1
-8 -4 -7 -6 2 -36 -19 -68 -47 -87 -76 -156 -125 -166 -119 -5 3 -7 2 -6 -3 2
-5 -4 -15 -12 -24 -13 -14 -16 -12 -33 19 -10 19 -16 44 -13 56 6 25 -41 132
-82 186 -29 38 -40 75 -20 65 7 -3 5 0 -4 7 -16 11 -15 14 10 30 15 10 21 18
14 18 -7 0 -17 12 -23 26 -9 24 -6 31 27 60 20 19 41 34 46 34 5 0 6 5 3 10
-3 6 -1 10 5 10 6 0 8 5 4 12 -5 8 -2 9 9 5 12 -5 17 -1 17 13 0 11 3 19 8 19
18 -3 22 2 12 21 -9 16 -8 18 5 14 8 -4 15 -11 15 -17 0 -6 3 -7 7 -4 3 4 -2
16 -12 27 -14 16 -15 20 -4 20 8 0 20 -5 27 -12 6 -6 15 -8 19 -4 4 4 3 10 -2
14 -6 4 -11 13 -13 20 -2 10 3 10 20 1 19 -9 17 -5 -7 17 -16 16 -34 28 -40
26 -5 -2 -4 2 3 9 6 7 12 21 12 30 0 9 7 22 15 29 18 15 10 31 -12 23 -11 -4
-14 -3 -9 6 4 6 16 9 26 6 10 -3 21 -1 25 5 4 7 13 6 28 -2 19 -9 20 -9 10 3
-6 8 -13 19 -15 24 -1 6 -9 9 -15 9 -7 -1 -13 2 -13 7 0 19 37 8 49 -13 11
-22 11 -22 8 -2 -4 16 0 20 13 17 10 -3 21 1 25 8 5 8 4 10 -3 5 -7 -4 -12 -1
-12 10 0 14 -2 15 -17 3 -15 -13 -15 -12 -4 9 6 12 16 22 22 22 6 0 7 5 4 11
-4 5 1 19 10 29 17 19 17 20 0 26 -15 6 -13 10 11 29 24 19 26 25 15 38 -7 9
-10 21 -6 27 3 5 -5 14 -19 20 -14 5 -30 18 -36 29 -6 12 -14 20 -18 20 -31
-5 -43 2 -38 24 3 12 3 17 1 11 -7 -14 -67 -5 -80 12 -6 8 -34 14 -72 15 -43
1 -64 6 -67 16 -5 12 1 13 27 8 18 -3 27 -3 20 2 -8 6 -3 13 18 22 16 7 27 17
23 22 -3 5 -10 7 -15 4 -5 -4 -9 -1 -9 4 0 6 6 11 13 11 18 0 62 38 54 46 -4
4 -13 1 -22 -6 -29 -24 -15 1 20 34 39 38 42 46 20 46 -8 0 -15 7 -15 15 0 8
-4 15 -8 15 -5 0 -29 13 -53 30 -24 16 -47 30 -51 30 -5 0 -9 -17 -9 -37 l-2
-38 -6 40 c-9 51 -17 65 -42 65 -16 0 -19 -8 -21 -42 l-1 -43 -6 45 c-5 40 -9
45 -33 48 l-28 3 1 -70z m49 -35 c0 -5 -3 -6 -7 -3 -3 4 -12 2 -20 -5 -12 -10
-12 -7 -2 16 9 19 15 23 21 14 4 -7 8 -17 8 -22z m176 -35 c-8 -12 -46 -21
-46 -11 0 5 8 11 18 13 29 8 33 7 28 -2z m-109 -226 c-15 -16 -19 -13 -11 9 3
9 10 13 15 10 5 -3 3 -11 -4 -19z m60 -41 c-6 -7 -37 25 -37 39 0 6 9 1 21
-12 12 -12 19 -24 16 -27z m-87 -18 c0 -3 -4 -8 -10 -11 -5 -3 -10 -1 -10 4 0
6 5 11 10 11 6 0 10 -2 10 -4z m119 -51 c3 -17 1 -18 -14 -5 -14 12 -18 12
-26 -1 -7 -11 -9 -9 -9 9 0 19 5 23 22 20 13 -2 24 -11 27 -23z m91 6 c0 -6
-4 -13 -10 -16 -5 -3 -10 1 -10 9 0 9 5 16 10 16 6 0 10 -4 10 -9z m-248 -33
c-7 -7 -12 -8 -12 -2 0 14 12 26 19 19 2 -3 -1 -11 -7 -17z m328 8 c0 -3 -4
-8 -10 -11 -5 -3 -10 -1 -10 4 0 6 5 11 10 11 6 0 10 -2 10 -4z m-359 -33 c-8
-15 -10 -15 -11 -2 0 17 10 32 18 25 2 -3 -1 -13 -7 -23z m323 -22 c3 -5 -14
-11 -39 -13 -25 -2 -45 0 -45 4 0 15 76 23 84 9z m-304 -21 c0 -5 -5 -10 -11
-10 -5 0 -7 5 -4 10 3 6 8 10 11 10 2 0 4 -4 4 -10z m139 -65 c-12 -19 -23
-35 -26 -35 -8 0 7 53 19 67 21 26 26 1 7 -32z m231 17 c0 -5 -7 -9 -15 -9 -8
0 -15 4 -15 9 0 4 7 8 15 8 8 0 15 -4 15 -8z m-359 -103 l-10 -24 0 26 c-1 14
2 29 6 33 12 12 14 -9 4 -35z m504 21 c3 -5 1 -10 -4 -10 -6 0 -11 5 -11 10 0
6 2 10 4 10 3 0 8 -4 11 -10z m-415 -57 c0 -5 -7 -17 -15 -27 -15 -20 -20 -10
-9 18 6 16 24 22 24 9z m-93 -38 c-7 -13 -14 -20 -15 -14 -5 14 6 39 17 39 5
0 4 -11 -2 -25z m193 8 c-1 -10 -50 -46 -50 -37 0 11 32 44 42 44 4 0 8 -3 8
-7z m50 -21 c0 -5 -7 -9 -15 -9 -8 0 -15 4 -15 9 0 4 7 8 15 8 8 0 15 -4 15
-8z m-189 -53 c-24 -26 -26 -22 -9 16 7 16 15 22 21 16 6 -6 1 -18 -12 -32z
m89 13 c0 -4 -9 -13 -20 -20 -24 -15 -26 -9 -4 12 17 18 24 20 24 8z m47 -18
c-3 -3 -12 -4 -19 -1 -8 3 -5 6 6 6 11 1 17 -2 13 -5z m-160 -62 c-10 -10 -17
-23 -17 -29 0 -5 -7 -10 -15 -10 -21 0 -19 13 7 37 27 25 47 27 25 2z m43 3
c-7 -9 -15 -13 -19 -10 -3 3 1 10 9 15 21 14 24 12 10 -5z m60 -5 c0 -5 -8
-10 -17 -10 -15 0 -16 2 -3 10 19 12 20 12 20 0z m-122 -109 c-15 -5 -19 4
-11 24 6 18 7 18 13 -1 4 -10 3 -21 -2 -23z m21 -73 c1 -4 -5 -5 -13 -2 -8 3
-12 13 -8 27 5 20 6 20 13 1 4 -10 8 -22 8 -26z m8 -85 c-11 -10 -26 8 -20 23
5 15 7 14 15 -1 6 -9 7 -19 5 -22z m679 -175 c-2 -90 -4 -247 -5 -350 l-1
-188 -26 10 c-14 6 -38 10 -53 10 -28 0 -79 29 -52 30 8 0 11 3 8 6 -4 4 -13
2 -21 -5 -16 -13 -59 0 -91 28 -11 10 -36 24 -55 31 -19 8 -67 28 -106 46 -78
36 -84 46 -84 137 0 42 29 87 57 87 8 0 12 3 10 8 -3 4 25 25 61 47 36 22 83
57 104 77 36 35 112 78 138 78 6 0 8 5 5 10 -3 6 -1 11 4 11 6 1 15 2 21 3 5
0 16 10 25 21 9 11 13 14 9 6 -5 -9 -3 -12 4 -7 7 4 12 12 12 18 0 9 28 45 37
47 2 1 1 -72 -1 -161z m-656 112 c0 -5 -7 -10 -15 -10 -8 0 -15 5 -15 10 0 6
7 10 15 10 8 0 15 -4 15 -10z m-45 -41 c11 -17 -1 -21 -15 -4 -8 9 -8 15 -2
15 6 0 14 -5 17 -11z m782 -41 c-3 -8 -6 -5 -6 6 -1 11 2 17 5 13 3 -3 4 -12
1 -19z m17 -226 c3 -5 -1 -9 -9 -9 -8 0 -15 4 -15 9 0 4 4 8 9 8 6 0 12 -4 15
-8z m-76 -187 c-3 -3 -9 2 -12 12 -6 14 -5 15 5 6 7 -7 10 -15 7 -18z m-748
-51 c0 -8 -5 -12 -10 -9 -6 4 -8 11 -5 16 9 14 15 11 15 -7z m744 -79 c-4 -8
-8 -15 -10 -15 -2 0 -4 7 -4 15 0 8 4 15 10 15 5 0 7 -7 4 -15z"/>
<path d="M675 62 c31 -14 83 -24 65 -13 -8 5 -31 11 -50 15 -24 4 -28 3 -15
-2z"/>
<path d="M256 1895 c20 -30 24 -31 17 -6 -3 11 -11 22 -19 25 -11 4 -11 0 2
-19z"/>
<path d="M1980 1880 c-9 -19 -9 -22 0 -13 7 6 19 9 26 6 8 -3 14 0 14 7 0 6
-4 9 -9 6 -5 -4 -11 0 -13 6 -3 8 -10 3 -18 -12z"/>
<path d="M2050 1885 c-7 -9 -11 -17 -9 -20 3 -2 10 5 17 15 14 24 10 26 -8 5z"/>
<path d="M2655 1892 c-17 -12 -15 -30 3 -34 12 -4 17 2 18 19 2 24 -4 28 -21
15z"/>
<path d="M775 1829 c-69 -63 -85 -89 -55 -89 11 0 19 3 18 8 -3 8 3 17 63 85
23 26 39 47 36 47 -3 0 -31 -23 -62 -51z"/>
<path d="M3155 1830 c-10 -11 -13 -20 -7 -20 6 0 16 9 22 20 6 11 9 20 7 20
-2 0 -12 -9 -22 -20z"/>
<path d="M1610 1820 c-9 -6 -10 -10 -3 -10 6 0 15 5 18 10 8 12 4 12 -15 0z"/>
<path d="M2714 1811 c-23 -9 -53 -24 -65 -34 l-24 -18 25 6 c14 3 32 7 40 9
18 5 90 46 90 52 0 7 -25 2 -66 -15z"/>
<path d="M295 1800 c12 -40 26 -59 19 -25 -4 17 -11 35 -16 40 -7 7 -8 1 -3
-15z"/>
<path d="M3438 1778 c-13 -13 -26 -22 -29 -21 -4 1 -29 -24 -55 -57 -27 -32
-60 -64 -74 -70 -21 -9 -19 -9 18 -5 40 5 42 4 43 -22 2 -24 2 -25 6 -5 2 12
9 20 14 17 5 -4 12 2 16 11 6 16 7 16 14 -2 6 -15 8 -13 8 11 1 29 3 31 36 27
l35 -4 0 71 c0 39 -2 71 -5 71 -3 0 -15 -10 -27 -22z"/>
<path d="M344 1728 c-12 -53 -13 -58 -4 -53 5 3 10 -3 12 -12 2 -10 5 8 6 40
2 64 -3 72 -14 25z"/>
<path d="M2583 1750 c-34 -14 -28 -21 7 -9 17 6 30 13 30 15 0 6 -12 4 -37 -6z"/>
<path d="M2128 1723 c-7 -16 -20 -39 -30 -52 -25 -33 -23 -75 6 -107 l23 -28
7 49 c5 31 15 54 29 65 19 16 20 20 7 35 -12 14 -12 19 -2 22 17 6 15 16 -8
31 -18 11 -22 9 -32 -15z m22 -27 c0 -3 -4 -8 -10 -11 -5 -3 -10 -1 -10 4 0 6
5 11 10 11 6 0 10 -2 10 -4z m-30 -86 c0 -5 -4 -10 -10 -10 -5 0 -10 5 -10 10
0 6 5 10 10 10 6 0 10 -4 10 -10z"/>
<path d="M2515 1730 c3 -5 8 -10 11 -10 2 0 4 5 4 10 0 6 -5 10 -11 10 -5 0
-7 -4 -4 -10z"/>
<path d="M3278 1712 c-44 -16 -103 -60 -93 -70 6 -7 66 18 93 39 13 10 31 15
44 11 15 -4 19 -2 13 8 -4 7 -2 16 6 21 23 15 -10 10 -63 -9z"/>
<path d="M635 1699 c-4 -6 -5 -12 -2 -15 2 -3 7 2 10 11 7 17 1 20 -8 4z"/>
<path d="M260 1671 c0 -5 7 -12 16 -15 14 -5 15 -4 4 9 -14 17 -20 19 -20 6z"/>
<path d="M1420 1661 c0 -6 4 -13 10 -16 6 -3 7 1 4 9 -7 18 -14 21 -14 7z"/>
<path d="M949 1644 c-1 -5 -1 -13 0 -17 1 -5 -4 -27 -10 -49 -7 -27 -13 -37
-19 -29 -5 9 -10 10 -14 2 -4 -6 -12 -11 -18 -11 -6 0 -6 7 2 18 8 9 -7 -3
-33 -28 -32 -31 -46 -53 -47 -72 0 -21 4 -26 16 -21 12 5 13 7 2 14 -9 6 -6 8
9 6 12 0 19 -5 17 -9 -8 -13 9 -9 30 7 11 9 14 15 7 15 -9 0 -8 4 3 15 8 8 18
15 22 15 3 0 1 -7 -6 -15 -8 -9 -8 -15 -2 -15 17 0 54 59 48 75 -3 8 -2 15 2
15 8 0 6 79 -3 88 -3 3 -6 1 -6 -4z"/>
<path d="M1397 1623 c-11 -11 -8 -20 8 -20 8 0 15 6 15 14 0 14 -12 17 -23 6z"/>
<path d="M2760 1609 c0 -5 5 -7 10 -4 6 3 10 8 10 11 0 2 -4 4 -10 4 -5 0 -10
-5 -10 -11z"/>
<path d="M337 1594 c6 -15 23 -19 23 -5 0 5 -7 11 -14 14 -10 4 -13 1 -9 -9z"/>
<path d="M1435 1599 c-4 -6 -5 -12 -2 -15 2 -3 7 2 10 11 7 17 1 20 -8 4z"/>
<path d="M2790 1580 c0 -4 9 -10 21 -13 12 -3 19 -1 17 5 -5 13 -38 20 -38 8z"/>
<path d="M3372 1533 c-10 -10 -10 -13 1 -13 30 0 51 -40 52 -98 0 -53 19 -102
37 -102 5 0 8 41 8 90 0 50 -4 90 -9 90 -4 0 -24 10 -43 23 -28 20 -36 21 -46
10z"/>
<path d="M2680 1518 c0 -4 -7 -8 -15 -8 -10 0 -15 -10 -15 -32 0 -18 4 -28 8
-23 4 6 30 11 58 13 61 4 80 -17 36 -38 -17 -8 -22 -14 -14 -17 7 -3 21 2 30
10 18 15 48 17 70 3 6 -4 12 -5 12 -1 0 3 9 1 21 -5 11 -7 18 -18 15 -25 -3
-9 0 -12 9 -9 9 4 12 0 8 -14 -3 -14 -11 -18 -26 -15 -22 4 -22 4 -2 -8 11 -7
25 -20 32 -28 7 -9 13 -12 13 -8 0 5 7 1 16 -7 14 -15 17 -15 32 0 9 9 17 25
17 36 3 32 -52 106 -100 137 -57 36 -205 65 -205 39z m245 -186 c-8 -8 -25 10
-19 20 4 6 9 5 15 -3 4 -7 6 -15 4 -17z"/>
<path d="M2710 1429 c0 -5 5 -7 10 -4 6 3 10 8 10 11 0 2 -4 4 -10 4 -5 0 -10
-5 -10 -11z"/>
<path d="M3284 1403 c-15 -21 -33 -41 -38 -45 -6 -4 -7 -10 -4 -14 11 -10 -23
-38 -48 -40 -17 -1 -24 4 -24 18 0 10 -6 18 -12 18 -9 0 -8 3 2 10 18 11 8 23
-14 14 -9 -3 -16 -13 -16 -22 0 -13 -3 -12 -15 3 -23 31 -51 62 -44 50 16 -29
43 -134 40 -160 -4 -40 -9 -44 -29 -18 -9 12 -30 24 -46 26 -17 2 -33 11 -37
23 -7 17 -8 17 -8 2 -1 -18 -31 -26 -31 -8 0 10 -65 25 -94 21 -10 -1 -16 1
-13 6 3 5 -5 10 -18 11 -19 1 -23 -2 -18 -15 4 -10 2 -14 -4 -10 -6 4 -24 0
-39 -8 l-29 -15 28 0 c16 0 26 -4 22 -10 -8 -14 6 -61 17 -54 12 7 39 -16 32
-27 -3 -5 6 -9 20 -9 28 0 43 -15 24 -23 -7 -3 -4 -6 7 -6 21 -1 75 -45 75
-61 0 -20 -30 -9 -60 23 -17 17 -30 26 -28 18 2 -7 -3 -16 -10 -18 -11 -4 -12
-1 -4 13 11 22 5 47 -9 38 -5 -3 -23 4 -39 16 -17 12 -30 18 -30 14 0 -3 -7
-1 -15 6 -21 18 -26 9 -9 -14 8 -11 14 -16 14 -12 0 4 7 0 16 -8 8 -9 19 -14
23 -12 4 3 13 -9 20 -26 12 -26 17 -29 45 -25 17 3 25 3 18 0 -6 -2 -9 -10 -6
-15 4 -7 2 -8 -5 -4 -6 4 -14 0 -17 -9 -4 -10 -10 -12 -18 -6 -15 12 -49 8
-54 -7 -2 -6 -10 -8 -18 -5 -8 3 -14 0 -14 -7 0 -6 -4 -8 -10 -5 -5 3 -10 1
-10 -4 0 -6 -7 -11 -15 -11 -23 0 -54 -20 -112 -71 -28 -25 -68 -54 -90 -64
-50 -23 -115 -74 -108 -85 3 -5 20 -6 39 -3 34 5 134 -34 166 -65 9 -9 15 -11
18 -4 2 6 10 8 18 5 7 -3 11 -9 8 -14 -3 -5 -10 -7 -15 -4 -5 4 -9 2 -9 -3 0
-10 -38 -5 -55 8 -18 13 -188 21 -224 11 -51 -15 -113 -61 -106 -79 7 -19 -12
-42 -29 -36 -8 3 -16 -2 -20 -12 -5 -12 -2 -15 10 -10 9 3 20 4 25 1 12 -8
-13 -34 -27 -28 -7 2 -15 0 -19 -6 -3 -7 0 -8 9 -5 10 4 16 1 16 -7 0 -8 10 1
23 18 12 18 27 33 34 33 6 0 14 9 18 19 10 34 56 71 86 71 17 0 29 -5 29 -12
0 -9 4 -8 10 2 5 8 10 10 10 4 0 -6 6 -11 14 -11 8 0 36 -8 62 -18 43 -16 45
-19 26 -26 -12 -5 -22 -11 -22 -14 0 -4 6 -3 13 1 9 5 9 4 1 -5 -6 -6 -21 -13
-33 -16 -29 -5 -53 -24 -45 -36 3 -5 -1 -9 -8 -10 -7 0 -4 -4 7 -8 11 -5 28
-4 39 1 13 7 21 6 26 -2 6 -9 9 -9 13 1 3 9 6 9 6 2 1 -6 -6 -18 -14 -27 -8
-8 -15 -19 -15 -24 0 -10 -45 -30 -70 -31 -41 -1 -78 -10 -106 -24 -30 -15
-64 -56 -64 -76 0 -13 39 -18 73 -10 16 5 27 4 27 -2 0 -6 5 -7 10 -4 6 3 10
-3 10 -14 0 -12 7 -21 16 -21 8 0 13 -4 10 -9 -5 -8 39 -22 85 -26 8 -1 24 -7
35 -14 15 -9 -10 -11 -116 -11 -137 1 -191 -2 -184 -9 2 -2 -24 -16 -57 -32
-79 -38 -143 -83 -197 -138 l-44 -46 53 -3 c50 -3 54 -2 103 46 28 26 59 54
69 61 32 25 20 -22 -19 -67 -35 -41 -34 -61 1 -22 20 22 43 17 24 -6 -17 -21
327 -20 355 1 10 8 15 19 11 26 -5 7 -3 10 6 7 8 -3 15 -10 15 -16 1 -7 2 -16
3 -22 2 -20 39 -9 56 16 9 14 25 34 36 45 22 22 21 40 -1 47 -7 3 -10 0 -6 -6
4 -7 -2 -9 -17 -6 -15 2 -35 -4 -50 -16 -14 -11 -28 -16 -31 -11 -3 5 1 11 8
14 18 7 17 44 -1 44 -6 0 -10 -4 -7 -9 3 -4 -2 -8 -11 -8 -9 0 -26 -5 -38 -12
-30 -16 -47 -18 -41 -5 7 18 50 47 71 49 36 3 64 -2 59 -11 -8 -12 39 -20 56
-10 10 7 9 9 -4 9 -9 0 -19 4 -22 8 -2 4 32 2 77 -5 45 -6 102 -12 126 -12
l45 -1 -55 -28 c-82 -43 -129 -73 -129 -82 0 -5 -8 -11 -17 -13 -10 -3 6 -5
35 -6 40 -1 60 4 79 19 14 11 32 20 39 20 8 0 14 5 14 11 0 5 4 8 9 5 5 -4 11
-2 13 3 1 6 15 12 29 15 15 2 40 11 57 20 16 8 32 13 34 10 3 -2 17 0 31 5 51
20 35 -3 -24 -33 -33 -17 -79 -41 -102 -53 l-42 -22 108 0 109 -1 96 79 c115
93 129 101 179 101 21 0 62 3 91 6 l52 7 0 273 c0 242 -2 274 -16 274 -8 0
-13 -4 -10 -9 6 -9 -76 -98 -92 -102 -20 -5 -38 -14 -50 -26 -8 -7 -17 -11
-22 -8 -5 3 -10 0 -12 -7 -8 -22 -25 1 -20 27 3 16 11 25 23 25 11 0 19 5 19
11 0 5 4 8 9 5 5 -3 14 0 20 8 7 8 23 17 38 21 14 3 23 9 19 12 -7 8 56 63 66
57 22 -14 29 50 28 276 -1 132 -4 240 -6 240 -24 0 -44 -25 -44 -55 0 -19 -9
-58 -20 -87 -11 -29 -20 -65 -20 -80 0 -16 -4 -28 -10 -28 -5 0 -10 7 -10 16
0 9 -5 12 -11 8 -9 -5 -10 11 -5 62 3 38 9 107 12 154 3 47 11 88 17 92 9 6 8
8 -1 8 -9 0 -10 6 -4 18 16 34 2 62 -32 62 -16 0 -33 -13 -52 -37z m-44 -792
c0 -6 -4 -13 -10 -16 -5 -3 -10 1 -10 9 0 9 5 16 10 16 6 0 10 -4 10 -9z
m-678 -215 c10 -19 10 -20 -6 -7 -9 8 -22 24 -28 35 -10 19 -10 20 6 7 9 -8
22 -24 28 -35z m545 -262 c-3 -3 -12 -4 -19 -1 -8 3 -5 6 6 6 11 1 17 -2 13
-5z m-747 -29 c0 -6 -73 -55 -83 -55 -10 0 10 19 43 42 25 17 40 22 40 13z"/>
<path d="M3144 1411 c4 -6 0 -14 -8 -17 -9 -3 -16 -11 -16 -16 0 -7 5 -6 13 1
8 6 17 8 20 4 4 -3 7 1 7 10 0 9 -5 19 -12 23 -7 4 -8 3 -4 -5z"/>
<path d="M3035 1340 c11 -12 20 -25 20 -29 0 -3 3 -5 8 -3 4 1 7 -5 7 -15 0
-9 3 -14 6 -10 11 11 -7 45 -34 63 l-27 17 20 -23z"/>
<path d="M3006 1315 c4 -8 8 -15 10 -15 2 0 4 7 4 15 0 8 -4 15 -10 15 -5 0
-7 -7 -4 -15z"/>
<path d="M882 1199 c6 -16 12 -29 13 -27 6 6 -8 58 -16 58 -4 0 -3 -14 3 -31z"/>
<path d="M1302 1208 c2 -13 8 -23 13 -23 6 0 11 10 11 23 1 13 -5 22 -13 22
-9 0 -13 -8 -11 -22z"/>
<path d="M1435 1220 c-3 -5 -2 -10 4 -10 5 0 13 5 16 10 3 6 2 10 -4 10 -5 0
-13 -4 -16 -10z"/>
<path d="M908 1187 c-2 -18 -1 -44 3 -58 5 -16 7 -5 8 34 1 63 -5 76 -11 24z"/>
<path d="M669 1183 c-11 -15 -11 -16 0 -6 7 6 20 9 29 6 10 -4 13 -2 8 5 -10
17 -21 15 -37 -5z"/>
<path d="M1347 1003 c-10 -9 -9 -23 2 -23 5 0 11 7 15 15 5 15 -5 20 -17 8z"/>
<path d="M632 938 c-7 -7 -12 -9 -12 -4 0 4 -7 1 -15 -7 -8 -9 -20 -17 -26
-19 -7 -2 -10 -10 -8 -17 4 -11 8 -10 21 3 24 23 31 20 14 -7 -14 -21 -14 -22
13 -22 22 -1 27 3 23 17 -3 12 1 18 12 18 9 0 16 8 16 19 0 11 8 22 18 24 9 3
3 5 -13 6 -17 0 -36 -4 -43 -11z"/>
<path d="M887 929 c7 -7 15 -10 18 -7 3 3 -2 9 -12 12 -14 6 -15 5 -6 -5z"/>
<path d="M1328 913 c7 -3 16 -2 19 1 4 3 -2 6 -13 5 -11 0 -14 -3 -6 -6z"/>
<path d="M1270 829 c0 -5 5 -7 10 -4 6 3 10 8 10 11 0 2 -4 4 -10 4 -5 0 -10
-5 -10 -11z"/>
<path d="M384 818 c-4 -6 -3 -8 4 -4 5 3 13 0 15 -6 3 -8 6 -6 6 5 1 19 -14
23 -25 5z"/>
<path d="M155 810 c-3 -5 -1 -10 4 -10 6 0 11 5 11 10 0 6 -2 10 -4 10 -3 0
-8 -4 -11 -10z"/>
<path d="M890 646 c0 -9 5 -16 10 -16 6 0 10 4 10 9 0 6 -4 13 -10 16 -5 3
-10 -1 -10 -9z"/>
<path d="M1320 470 c0 -5 5 -10 10 -10 6 0 10 5 10 10 0 6 -4 10 -10 10 -5 0
-10 -4 -10 -10z"/>
<path d="M1415 420 c-3 -5 -1 -10 4 -10 6 0 11 5 11 10 0 6 -2 10 -4 10 -3 0
-8 -4 -11 -10z"/>
<path d="M901 274 c0 -11 3 -14 6 -6 3 7 2 16 -1 19 -3 4 -6 -2 -5 -13z"/>
<path d="M1470 159 c0 -5 5 -7 10 -4 6 3 10 8 10 11 0 2 -4 4 -10 4 -5 0 -10
-5 -10 -11z"/>
<path d="M1620 150 c0 -5 5 -10 10 -10 6 0 10 5 10 10 0 6 -4 10 -10 10 -5 0
-10 -4 -10 -10z"/>
<path d="M872 120 c0 -14 2 -19 5 -12 2 6 2 18 0 25 -3 6 -5 1 -5 -13z"/>
<path d="M902 120 c0 -14 2 -19 5 -12 2 6 2 18 0 25 -3 6 -5 1 -5 -13z"/>
<path d="M1530 126 c0 -2 7 -7 16 -10 8 -3 12 -2 9 4 -6 10 -25 14 -25 6z"/>
<path d="M2725 110 c-22 -25 -3 -34 24 -11 17 15 18 20 7 24 -8 3 -22 -3 -31
-13z"/>
<path d="M3181 60 c-40 -27 -76 -51 -79 -54 -3 -3 79 -6 181 -6 l187 0 0 49
c0 46 -1 48 -25 43 -14 -2 -25 -10 -25 -17 0 -9 8 -11 23 -8 21 5 21 5 5 -12
-20 -21 -45 -14 -58 17 l-9 23 0 -23 c-1 -26 -27 -40 -43 -24 -7 7 -16 7 -29
-1 -26 -16 -54 3 -54 37 1 14 1 26 0 26 0 -1 -33 -23 -74 -50z"/>
<path d="M3333 94 c-3 -9 0 -20 8 -24 18 -12 24 -4 10 14 -9 11 -9 15 1 19 10
4 10 6 0 6 -7 1 -15 -6 -19 -15z"/>
<path d="M900 60 c-1 -3 -4 -18 -6 -35 -2 -24 -1 -27 7 -12 6 10 8 25 6 35 -3
9 -6 15 -7 12z"/>
<path d="M860 21 c0 -25 6 -27 13 -6 4 8 2 17 -3 20 -6 4 -10 -3 -10 -14z"/>
<path d="M918 3 c7 -3 16 -2 19 1 4 3 -2 6 -13 5 -11 0 -14 -3 -6 -6z"/>
</g>
</svg>
